<?xml version="1.0" encoding="UTF-8" standalone="no"?>
<svg xmlns="http://www.w3.org/2000/svg" xmlns:xlink="http://www.w3.org/1999/xlink" contentStyleType="text/css" height="449px" preserveAspectRatio="none" style="width:454px;height:449px;background:#FFFFFF;" version="1.1" viewBox="0 0 454 449" width="454px" zoomAndPan="magnify"><defs/><g><!--MD5=[deccf815b5c4bc80edd48b535b16d559]
class EDT--><g id="elem_EDT"><rect codeLine="3" fill="#F1F1F1" height="48" id="EDT" rx="3.5" ry="3.5" style="stroke:#181818;stroke-width:0.5;" width="61" x="198" y="177"/><ellipse cx="213" cy="193" fill="#ADD1B2" rx="11" ry="11" style="stroke:#181818;stroke-width:1.0;"/><path d="M215.3438,188.6719 C214.4063,188.2344 213.8125,188.0938 212.9375,188.0938 C210.3125,188.0938 208.3125,190.1719 208.3125,192.8906 L208.3125,194.0156 C208.3125,196.5938 210.4219,198.4844 213.3125,198.4844 C214.5313,198.4844 215.6875,198.1875 216.4375,197.6406 C217.0156,197.2344 217.3438,196.7813 217.3438,196.3906 C217.3438,195.9375 216.9531,195.5469 216.4844,195.5469 C216.2656,195.5469 216.0625,195.625 215.875,195.8125 C215.4219,196.2969 215.4219,196.2969 215.2344,196.3906 C214.8125,196.6563 214.125,196.7813 213.3594,196.7813 C211.3125,196.7813 210.0156,195.6875 210.0156,193.9844 L210.0156,192.8906 C210.0156,191.1094 211.2656,189.7969 213,189.7969 C213.5781,189.7969 214.1875,189.9531 214.6563,190.2031 C215.1406,190.4844 215.3125,190.7031 215.4063,191.1094 C215.4688,191.5156 215.5,191.6406 215.6406,191.7656 C215.7813,191.9063 216.0156,192.0156 216.2344,192.0156 C216.5,192.0156 216.7656,191.875 216.9375,191.6563 C217.0469,191.5 217.0781,191.3125 217.0781,190.8906 L217.0781,189.4688 C217.0781,189.0313 217.0625,188.9063 216.9688,188.75 C216.8125,188.4844 216.5313,188.3438 216.2344,188.3438 C215.9375,188.3438 215.7344,188.4375 215.5156,188.75 L215.3438,188.6719 Z " fill="#000000"/><text fill="#000000" font-family="sans-serif" font-size="14" lengthAdjust="spacing" textLength="29" x="227" y="197.8467">EDT</text><line style="stroke:#181818;stroke-width:0.5;" x1="199" x2="258" y1="209" y2="209"/><line style="stroke:#181818;stroke-width:0.5;" x1="199" x2="258" y1="217" y2="217"/></g><!--MD5=[ffe49301365913940c985a645681e007]
class Usager--><g id="elem_Usager"><rect codeLine="5" fill="#F1F1F1" height="64.2969" id="Usager" rx="3.5" ry="3.5" style="stroke:#181818;stroke-width:0.5;" width="80" x="24.5" y="49"/><ellipse cx="39.5" cy="65" fill="#ADD1B2" rx="11" ry="11" style="stroke:#181818;stroke-width:1.0;"/><path d="M41.8438,60.6719 C40.9063,60.2344 40.3125,60.0938 39.4375,60.0938 C36.8125,60.0938 34.8125,62.1719 34.8125,64.8906 L34.8125,66.0156 C34.8125,68.5938 36.9219,70.4844 39.8125,70.4844 C41.0313,70.4844 42.1875,70.1875 42.9375,69.6406 C43.5156,69.2344 43.8438,68.7813 43.8438,68.3906 C43.8438,67.9375 43.4531,67.5469 42.9844,67.5469 C42.7656,67.5469 42.5625,67.625 42.375,67.8125 C41.9219,68.2969 41.9219,68.2969 41.7344,68.3906 C41.3125,68.6563 40.625,68.7813 39.8594,68.7813 C37.8125,68.7813 36.5156,67.6875 36.5156,65.9844 L36.5156,64.8906 C36.5156,63.1094 37.7656,61.7969 39.5,61.7969 C40.0781,61.7969 40.6875,61.9531 41.1563,62.2031 C41.6406,62.4844 41.8125,62.7031 41.9063,63.1094 C41.9688,63.5156 42,63.6406 42.1406,63.7656 C42.2813,63.9063 42.5156,64.0156 42.7344,64.0156 C43,64.0156 43.2656,63.875 43.4375,63.6563 C43.5469,63.5 43.5781,63.3125 43.5781,62.8906 L43.5781,61.4688 C43.5781,61.0313 43.5625,60.9063 43.4688,60.75 C43.3125,60.4844 43.0313,60.3438 42.7344,60.3438 C42.4375,60.3438 42.2344,60.4375 42.0156,60.75 L41.8438,60.6719 Z " fill="#000000"/><text fill="#000000" font-family="sans-serif" font-size="14" lengthAdjust="spacing" textLength="48" x="53.5" y="69.8467">Usager</text><line style="stroke:#181818;stroke-width:0.5;" x1="25.5" x2="103.5" y1="81" y2="81"/><text fill="#000000" font-family="sans-serif" font-size="14" lengthAdjust="spacing" textLength="57" x="30.5" y="97.9951">str:nom</text><line style="stroke:#181818;stroke-width:0.5;" x1="25.5" x2="103.5" y1="105.2969" y2="105.2969"/></g><!--MD5=[f84e857de5a9ca5678aed72e3e98d0a5]
class Etudiant--><g id="elem_Etudiant"><rect codeLine="8" fill="#F1F1F1" height="64.2969" id="Etudiant" rx="3.5" ry="3.5" style="stroke:#181818;stroke-width:0.5;" width="93" x="182" y="7"/><ellipse cx="197" cy="23" fill="#ADD1B2" rx="11" ry="11" style="stroke:#181818;stroke-width:1.0;"/><path d="M199.3438,18.6719 C198.4063,18.2344 197.8125,18.0938 196.9375,18.0938 C194.3125,18.0938 192.3125,20.1719 192.3125,22.8906 L192.3125,24.0156 C192.3125,26.5938 194.4219,28.4844 197.3125,28.4844 C198.5313,28.4844 199.6875,28.1875 200.4375,27.6406 C201.0156,27.2344 201.3438,26.7813 201.3438,26.3906 C201.3438,25.9375 200.9531,25.5469 200.4844,25.5469 C200.2656,25.5469 200.0625,25.625 199.875,25.8125 C199.4219,26.2969 199.4219,26.2969 199.2344,26.3906 C198.8125,26.6563 198.125,26.7813 197.3594,26.7813 C195.3125,26.7813 194.0156,25.6875 194.0156,23.9844 L194.0156,22.8906 C194.0156,21.1094 195.2656,19.7969 197,19.7969 C197.5781,19.7969 198.1875,19.9531 198.6563,20.2031 C199.1406,20.4844 199.3125,20.7031 199.4063,21.1094 C199.4688,21.5156 199.5,21.6406 199.6406,21.7656 C199.7813,21.9063 200.0156,22.0156 200.2344,22.0156 C200.5,22.0156 200.7656,21.875 200.9375,21.6563 C201.0469,21.5 201.0781,21.3125 201.0781,20.8906 L201.0781,19.4688 C201.0781,19.0313 201.0625,18.9063 200.9688,18.75 C200.8125,18.4844 200.5313,18.3438 200.2344,18.3438 C199.9375,18.3438 199.7344,18.4375 199.5156,18.75 L199.3438,18.6719 Z " fill="#000000"/><text fill="#000000" font-family="sans-serif" font-size="14" lengthAdjust="spacing" textLength="61" x="211" y="27.8467">Etudiant</text><line style="stroke:#181818;stroke-width:0.5;" x1="183" x2="274" y1="39" y2="39"/><text fill="#000000" font-family="sans-serif" font-size="14" lengthAdjust="spacing" textLength="57" x="188" y="55.9951">str:nom</text><line style="stroke:#181818;stroke-width:0.5;" x1="183" x2="274" y1="63.2969" y2="63.2969"/></g><!--MD5=[e195e885e5bdec0a16cdb8566f41a079]
class Invite--><g id="elem_Invite"><rect codeLine="11" fill="#F1F1F1" height="48" id="Invite" rx="3.5" ry="3.5" style="stroke:#181818;stroke-width:0.5;" width="73" x="28" y="247"/><ellipse cx="43" cy="263" fill="#ADD1B2" rx="11" ry="11" style="stroke:#181818;stroke-width:1.0;"/><path d="M45.3438,258.6719 C44.4063,258.2344 43.8125,258.0938 42.9375,258.0938 C40.3125,258.0938 38.3125,260.1719 38.3125,262.8906 L38.3125,264.0156 C38.3125,266.5938 40.4219,268.4844 43.3125,268.4844 C44.5313,268.4844 45.6875,268.1875 46.4375,267.6406 C47.0156,267.2344 47.3438,266.7813 47.3438,266.3906 C47.3438,265.9375 46.9531,265.5469 46.4844,265.5469 C46.2656,265.5469 46.0625,265.625 45.875,265.8125 C45.4219,266.2969 45.4219,266.2969 45.2344,266.3906 C44.8125,266.6563 44.125,266.7813 43.3594,266.7813 C41.3125,266.7813 40.0156,265.6875 40.0156,263.9844 L40.0156,262.8906 C40.0156,261.1094 41.2656,259.7969 43,259.7969 C43.5781,259.7969 44.1875,259.9531 44.6563,260.2031 C45.1406,260.4844 45.3125,260.7031 45.4063,261.1094 C45.4688,261.5156 45.5,261.6406 45.6406,261.7656 C45.7813,261.9063 46.0156,262.0156 46.2344,262.0156 C46.5,262.0156 46.7656,261.875 46.9375,261.6563 C47.0469,261.5 47.0781,261.3125 47.0781,260.8906 L47.0781,259.4688 C47.0781,259.0313 47.0625,258.9063 46.9688,258.75 C46.8125,258.4844 46.5313,258.3438 46.2344,258.3438 C45.9375,258.3438 45.7344,258.4375 45.5156,258.75 L45.3438,258.6719 Z " fill="#000000"/><text fill="#000000" font-family="sans-serif" font-size="14" lengthAdjust="spacing" textLength="41" x="57" y="267.8467">Invite</text><line style="stroke:#181818;stroke-width:0.5;" x1="29" x2="100" y1="279" y2="279"/><line style="stroke:#181818;stroke-width:0.5;" x1="29" x2="100" y1="287" y2="287"/></g><!--MD5=[f6edf60997924e693a9a5571eb281b8c]
class Cours--><g id="elem_Cours"><rect codeLine="12" fill="#F1F1F1" height="64.2969" id="Cours" rx="3.5" ry="3.5" style="stroke:#181818;stroke-width:0.5;" width="72" x="192.5" y="260"/><ellipse cx="207.5" cy="276" fill="#ADD1B2" rx="11" ry="11" style="stroke:#181818;stroke-width:1.0;"/><path d="M209.8438,271.6719 C208.9063,271.2344 208.3125,271.0938 207.4375,271.0938 C204.8125,271.0938 202.8125,273.1719 202.8125,275.8906 L202.8125,277.0156 C202.8125,279.5938 204.9219,281.4844 207.8125,281.4844 C209.0313,281.4844 210.1875,281.1875 210.9375,280.6406 C211.5156,280.2344 211.8438,279.7813 211.8438,279.3906 C211.8438,278.9375 211.4531,278.5469 210.9844,278.5469 C210.7656,278.5469 210.5625,278.625 210.375,278.8125 C209.9219,279.2969 209.9219,279.2969 209.7344,279.3906 C209.3125,279.6563 208.625,279.7813 207.8594,279.7813 C205.8125,279.7813 204.5156,278.6875 204.5156,276.9844 L204.5156,275.8906 C204.5156,274.1094 205.7656,272.7969 207.5,272.7969 C208.0781,272.7969 208.6875,272.9531 209.1563,273.2031 C209.6406,273.4844 209.8125,273.7031 209.9063,274.1094 C209.9688,274.5156 210,274.6406 210.1406,274.7656 C210.2813,274.9063 210.5156,275.0156 210.7344,275.0156 C211,275.0156 211.2656,274.875 211.4375,274.6563 C211.5469,274.5 211.5781,274.3125 211.5781,273.8906 L211.5781,272.4688 C211.5781,272.0313 211.5625,271.9063 211.4688,271.75 C211.3125,271.4844 211.0313,271.3438 210.7344,271.3438 C210.4375,271.3438 210.2344,271.4375 210.0156,271.75 L209.8438,271.6719 Z " fill="#000000"/><text fill="#000000" font-family="sans-serif" font-size="14" lengthAdjust="spacing" textLength="40" x="221.5" y="280.8467">Cours</text><line style="stroke:#181818;stroke-width:0.5;" x1="193.5" x2="263.5" y1="292" y2="292"/><text fill="#000000" font-family="sans-serif" font-size="14" lengthAdjust="spacing" textLength="59" x="198.5" y="308.9951">str:type</text><line style="stroke:#181818;stroke-width:0.5;" x1="193.5" x2="263.5" y1="316.2969" y2="316.2969"/></g><!--MD5=[0ea76b077f2fe2b0557d144a0cdb3724]
class Enseignant--><g id="elem_Enseignant"><rect codeLine="16" fill="#F1F1F1" height="64.2969" id="Enseignant" rx="3.5" ry="3.5" style="stroke:#181818;stroke-width:0.5;" width="112" x="335" y="135"/><ellipse cx="350" cy="151" fill="#ADD1B2" rx="11" ry="11" style="stroke:#181818;stroke-width:1.0;"/><path d="M352.3438,146.6719 C351.4063,146.2344 350.8125,146.0938 349.9375,146.0938 C347.3125,146.0938 345.3125,148.1719 345.3125,150.8906 L345.3125,152.0156 C345.3125,154.5938 347.4219,156.4844 350.3125,156.4844 C351.5313,156.4844 352.6875,156.1875 353.4375,155.6406 C354.0156,155.2344 354.3438,154.7813 354.3438,154.3906 C354.3438,153.9375 353.9531,153.5469 353.4844,153.5469 C353.2656,153.5469 353.0625,153.625 352.875,153.8125 C352.4219,154.2969 352.4219,154.2969 352.2344,154.3906 C351.8125,154.6563 351.125,154.7813 350.3594,154.7813 C348.3125,154.7813 347.0156,153.6875 347.0156,151.9844 L347.0156,150.8906 C347.0156,149.1094 348.2656,147.7969 350,147.7969 C350.5781,147.7969 351.1875,147.9531 351.6563,148.2031 C352.1406,148.4844 352.3125,148.7031 352.4063,149.1094 C352.4688,149.5156 352.5,149.6406 352.6406,149.7656 C352.7813,149.9063 353.0156,150.0156 353.2344,150.0156 C353.5,150.0156 353.7656,149.875 353.9375,149.6563 C354.0469,149.5 354.0781,149.3125 354.0781,148.8906 L354.0781,147.4688 C354.0781,147.0313 354.0625,146.9063 353.9688,146.75 C353.8125,146.4844 353.5313,146.3438 353.2344,146.3438 C352.9375,146.3438 352.7344,146.4375 352.5156,146.75 L352.3438,146.6719 Z " fill="#000000"/><text fill="#000000" font-family="sans-serif" font-size="14" lengthAdjust="spacing" textLength="80" x="364" y="155.8467">Enseignant</text><line style="stroke:#181818;stroke-width:0.5;" x1="336" x2="446" y1="167" y2="167"/><text fill="#000000" font-family="sans-serif" font-size="14" lengthAdjust="spacing" textLength="57" x="341" y="183.9951">str:nom</text><line style="stroke:#181818;stroke-width:0.5;" x1="336" x2="446" y1="191.2969" y2="191.2969"/></g><!--MD5=[9c44bef4398b9b819e757c850646d09b]
class Salle--><g id="elem_Salle"><rect codeLine="20" fill="#F1F1F1" height="80.5938" id="Salle" rx="3.5" ry="3.5" style="stroke:#181818;stroke-width:0.5;" width="105" x="338.5" y="245.5"/><ellipse cx="371.05" cy="261.5" fill="#ADD1B2" rx="11" ry="11" style="stroke:#181818;stroke-width:1.0;"/><path d="M373.3938,257.1719 C372.4563,256.7344 371.8625,256.5938 370.9875,256.5938 C368.3625,256.5938 366.3625,258.6719 366.3625,261.3906 L366.3625,262.5156 C366.3625,265.0938 368.4719,266.9844 371.3625,266.9844 C372.5813,266.9844 373.7375,266.6875 374.4875,266.1406 C375.0656,265.7344 375.3938,265.2813 375.3938,264.8906 C375.3938,264.4375 375.0031,264.0469 374.5344,264.0469 C374.3156,264.0469 374.1125,264.125 373.925,264.3125 C373.4719,264.7969 373.4719,264.7969 373.2844,264.8906 C372.8625,265.1563 372.175,265.2813 371.4094,265.2813 C369.3625,265.2813 368.0656,264.1875 368.0656,262.4844 L368.0656,261.3906 C368.0656,259.6094 369.3156,258.2969 371.05,258.2969 C371.6281,258.2969 372.2375,258.4531 372.7063,258.7031 C373.1906,258.9844 373.3625,259.2031 373.4563,259.6094 C373.5188,260.0156 373.55,260.1406 373.6906,260.2656 C373.8313,260.4063 374.0656,260.5156 374.2844,260.5156 C374.55,260.5156 374.8156,260.375 374.9875,260.1563 C375.0969,260 375.1281,259.8125 375.1281,259.3906 L375.1281,257.9688 C375.1281,257.5313 375.1125,257.4063 375.0188,257.25 C374.8625,256.9844 374.5813,256.8438 374.2844,256.8438 C373.9875,256.8438 373.7844,256.9375 373.5656,257.25 L373.3938,257.1719 Z " fill="#000000"/><text fill="#000000" font-family="sans-serif" font-size="14" lengthAdjust="spacing" textLength="34" x="388.95" y="266.3467">Salle</text><line style="stroke:#181818;stroke-width:0.5;" x1="339.5" x2="442.5" y1="277.5" y2="277.5"/><text fill="#000000" font-family="sans-serif" font-size="14" lengthAdjust="spacing" textLength="57" x="344.5" y="294.4951">str:nom</text><text fill="#000000" font-family="sans-serif" font-size="14" lengthAdjust="spacing" textLength="93" x="344.5" y="310.792">str:batiment</text><line style="stroke:#181818;stroke-width:0.5;" x1="339.5" x2="442.5" y1="318.0938" y2="318.0938"/></g><!--MD5=[d5e749ab7314d8c065073d76a4bf7b2d]
class Matiere--><g id="elem_Matiere"><rect codeLine="25" fill="#F1F1F1" height="80.5938" id="Matiere" rx="3.5" ry="3.5" style="stroke:#181818;stroke-width:0.5;" width="104" x="339" y="361.5"/><ellipse cx="361.65" cy="377.5" fill="#ADD1B2" rx="11" ry="11" style="stroke:#181818;stroke-width:1.0;"/><path d="M363.9938,373.1719 C363.0563,372.7344 362.4625,372.5938 361.5875,372.5938 C358.9625,372.5938 356.9625,374.6719 356.9625,377.3906 L356.9625,378.5156 C356.9625,381.0938 359.0719,382.9844 361.9625,382.9844 C363.1813,382.9844 364.3375,382.6875 365.0875,382.1406 C365.6656,381.7344 365.9938,381.2813 365.9938,380.8906 C365.9938,380.4375 365.6031,380.0469 365.1344,380.0469 C364.9156,380.0469 364.7125,380.125 364.525,380.3125 C364.0719,380.7969 364.0719,380.7969 363.8844,380.8906 C363.4625,381.1563 362.775,381.2813 362.0094,381.2813 C359.9625,381.2813 358.6656,380.1875 358.6656,378.4844 L358.6656,377.3906 C358.6656,375.6094 359.9156,374.2969 361.65,374.2969 C362.2281,374.2969 362.8375,374.4531 363.3063,374.7031 C363.7906,374.9844 363.9625,375.2031 364.0563,375.6094 C364.1188,376.0156 364.15,376.1406 364.2906,376.2656 C364.4313,376.4063 364.6656,376.5156 364.8844,376.5156 C365.15,376.5156 365.4156,376.375 365.5875,376.1563 C365.6969,376 365.7281,375.8125 365.7281,375.3906 L365.7281,373.9688 C365.7281,373.5313 365.7125,373.4063 365.6188,373.25 C365.4625,372.9844 365.1813,372.8438 364.8844,372.8438 C364.5875,372.8438 364.3844,372.9375 364.1656,373.25 L363.9938,373.1719 Z " fill="#000000"/><text fill="#000000" font-family="sans-serif" font-size="14" lengthAdjust="spacing" textLength="55" x="377.35" y="382.3467">Matiere</text><line style="stroke:#181818;stroke-width:0.5;" x1="340" x2="442" y1="393.5" y2="393.5"/><text fill="#000000" font-family="sans-serif" font-size="14" lengthAdjust="spacing" textLength="57" x="345" y="410.4951">str:nom</text><text fill="#000000" font-family="sans-serif" font-size="14" lengthAdjust="spacing" textLength="92" x="345" y="426.792">int:nb_heure</text><line style="stroke:#181818;stroke-width:0.5;" x1="340" x2="442" y1="434.0938" y2="434.0938"/></g><!--MD5=[1d97155fbdc73f053377e8b095f5eeba]
class Promotion--><g id="elem_Promotion"><rect codeLine="30" fill="#F1F1F1" height="64.2969" id="Promotion" rx="3.5" ry="3.5" style="stroke:#181818;stroke-width:0.5;" width="108" x="337" y="30"/><ellipse cx="352" cy="46" fill="#ADD1B2" rx="11" ry="11" style="stroke:#181818;stroke-width:1.0;"/><path d="M354.3438,41.6719 C353.4063,41.2344 352.8125,41.0938 351.9375,41.0938 C349.3125,41.0938 347.3125,43.1719 347.3125,45.8906 L347.3125,47.0156 C347.3125,49.5938 349.4219,51.4844 352.3125,51.4844 C353.5313,51.4844 354.6875,51.1875 355.4375,50.6406 C356.0156,50.2344 356.3438,49.7813 356.3438,49.3906 C356.3438,48.9375 355.9531,48.5469 355.4844,48.5469 C355.2656,48.5469 355.0625,48.625 354.875,48.8125 C354.4219,49.2969 354.4219,49.2969 354.2344,49.3906 C353.8125,49.6563 353.125,49.7813 352.3594,49.7813 C350.3125,49.7813 349.0156,48.6875 349.0156,46.9844 L349.0156,45.8906 C349.0156,44.1094 350.2656,42.7969 352,42.7969 C352.5781,42.7969 353.1875,42.9531 353.6563,43.2031 C354.1406,43.4844 354.3125,43.7031 354.4063,44.1094 C354.4688,44.5156 354.5,44.6406 354.6406,44.7656 C354.7813,44.9063 355.0156,45.0156 355.2344,45.0156 C355.5,45.0156 355.7656,44.875 355.9375,44.6563 C356.0469,44.5 356.0781,44.3125 356.0781,43.8906 L356.0781,42.4688 C356.0781,42.0313 356.0625,41.9063 355.9688,41.75 C355.8125,41.4844 355.5313,41.3438 355.2344,41.3438 C354.9375,41.3438 354.7344,41.4375 354.5156,41.75 L354.3438,41.6719 Z " fill="#000000"/><text fill="#000000" font-family="sans-serif" font-size="14" lengthAdjust="spacing" textLength="76" x="366" y="50.8467">Promotion</text><line style="stroke:#181818;stroke-width:0.5;" x1="338" x2="444" y1="62" y2="62"/><text fill="#000000" font-family="sans-serif" font-size="14" lengthAdjust="spacing" textLength="57" x="343" y="78.9951">str:nom</text><line style="stroke:#181818;stroke-width:0.5;" x1="338" x2="444" y1="86.2969" y2="86.2969"/></g><!--MD5=[4b73984fc7bdac208360a8769845088b]
class Gestionaire--><g id="elem_Gestionaire"><rect codeLine="34" fill="#F1F1F1" height="64.2969" id="Gestionaire" rx="3.5" ry="3.5" style="stroke:#181818;stroke-width:0.5;" width="115" x="7" y="148"/><ellipse cx="22" cy="164" fill="#ADD1B2" rx="11" ry="11" style="stroke:#181818;stroke-width:1.0;"/><path d="M24.3438,159.6719 C23.4063,159.2344 22.8125,159.0938 21.9375,159.0938 C19.3125,159.0938 17.3125,161.1719 17.3125,163.8906 L17.3125,165.0156 C17.3125,167.5938 19.4219,169.4844 22.3125,169.4844 C23.5313,169.4844 24.6875,169.1875 25.4375,168.6406 C26.0156,168.2344 26.3438,167.7813 26.3438,167.3906 C26.3438,166.9375 25.9531,166.5469 25.4844,166.5469 C25.2656,166.5469 25.0625,166.625 24.875,166.8125 C24.4219,167.2969 24.4219,167.2969 24.2344,167.3906 C23.8125,167.6563 23.125,167.7813 22.3594,167.7813 C20.3125,167.7813 19.0156,166.6875 19.0156,164.9844 L19.0156,163.8906 C19.0156,162.1094 20.2656,160.7969 22,160.7969 C22.5781,160.7969 23.1875,160.9531 23.6563,161.2031 C24.1406,161.4844 24.3125,161.7031 24.4063,162.1094 C24.4688,162.5156 24.5,162.6406 24.6406,162.7656 C24.7813,162.9063 25.0156,163.0156 25.2344,163.0156 C25.5,163.0156 25.7656,162.875 25.9375,162.6563 C26.0469,162.5 26.0781,162.3125 26.0781,161.8906 L26.0781,160.4688 C26.0781,160.0313 26.0625,159.9063 25.9688,159.75 C25.8125,159.4844 25.5313,159.3438 25.2344,159.3438 C24.9375,159.3438 24.7344,159.4375 24.5156,159.75 L24.3438,159.6719 Z " fill="#000000"/><text fill="#000000" font-family="sans-serif" font-size="14" lengthAdjust="spacing" textLength="83" x="36" y="168.8467">Gestionaire</text><line style="stroke:#181818;stroke-width:0.5;" x1="8" x2="121" y1="180" y2="180"/><text fill="#000000" font-family="sans-serif" font-size="14" lengthAdjust="spacing" textLength="57" x="13" y="196.9951">str:nom</text><line style="stroke:#181818;stroke-width:0.5;" x1="8" x2="121" y1="204.2969" y2="204.2969"/></g><!--MD5=[eba894ee1a99698060f0378d6ab5a1a5]
reverse link EDT to Cours--><g id="link_EDT_Cours"><path codeLine="38" d="M228.5,238.442 C228.5,245.512 228.5,252.582 228.5,259.652 " fill="none" id="EDT-backto-Cours" style="stroke:#454645;stroke-width:1.0;"/><polygon fill="none" points="228.5,225.286,224.5,231.286,228.5,237.286,232.5,231.286,228.5,225.286" style="stroke:#454645;stroke-width:1.0;"/></g><!--MD5=[b74a9df664e9f2718aa0d10fefe73d7c]
link Invite to EDT--><g id="link_Invite_EDT"><path codeLine="39" d="M101.0516,255.638 C130.111,243.082 170.709,225.539 197.993,213.75 " fill="none" id="Invite-EDT" style="stroke:#454645;stroke-width:1.0;"/><text fill="#000000" font-family="sans-serif" font-size="13" lengthAdjust="spacing" textLength="24" x="165.8901" y="229.6897">1..n</text></g><!--MD5=[b3e355da808b21d3908df09f23270cd2]
link Usager to EDT--><g id="link_Usager_EDT"><path codeLine="40" d="M104.7157,110.049 C133.37,131.274 171.631,159.616 197.781,178.986 " fill="none" id="Usager-EDT" style="stroke:#454645;stroke-width:1.0;"/><text fill="#000000" font-family="sans-serif" font-size="13" lengthAdjust="spacing" textLength="24" x="165.9047" y="188.3891">1..n</text></g><!--MD5=[0e407c513a8c2f1874b11098b8c6369c]
reverse link Usager to Gestionaire--><g id="link_Usager_Gestionaire"><path codeLine="41" d="M64.5,118.304 C64.5,128.17 64.5,138.036 64.5,147.902 " fill="none" id="Usager-backto-Gestionaire" style="stroke:#454645;stroke-width:1.0;"/><polygon fill="#454645" points="64.5,113.144,60.5,122.144,64.5,118.144,68.5,122.144,64.5,113.144" style="stroke:#454645;stroke-width:1.0;"/></g><!--MD5=[8ae8e9b21150704f2283a1d373d5b54a]
reverse link Usager to Etudiant--><g id="link_Usager_Etudiant"><path codeLine="42" d="M109.704,69.54 C132.066,63.742 159.179,56.713 181.754,50.86 " fill="none" id="Usager-backto-Etudiant" style="stroke:#454645;stroke-width:1.0;"/><polygon fill="#454645" points="104.7157,70.833,114.4318,72.4446,109.5555,69.5773,112.4228,64.701,104.7157,70.833" style="stroke:#454645;stroke-width:1.0;"/></g><!--MD5=[d3a8304c4fe42451e489a66fb319e048]
reverse link Usager to Enseignant--><g id="link_Usager_Enseignant"><path codeLine="43" d="M109.813,92.744 C168.289,108.241 271.218,135.52 334.718,152.349 " fill="none" id="Usager-backto-Enseignant" style="stroke:#454645;stroke-width:1.0;"/><polygon fill="#454645" points="104.6423,91.374,112.3165,97.547,109.4753,92.6555,114.3669,89.8142,104.6423,91.374" style="stroke:#454645;stroke-width:1.0;"/></g><!--MD5=[ce9b7c63cd8960b4919e4a7a2405f45e]
link Cours to Salle--><g id="link_Cours_Salle"><path codeLine="44" d="M264.722,290.683 C286.315,289.876 314.339,288.828 338.404,287.929 " fill="none" id="Cours-Salle" style="stroke:#454645;stroke-width:1.0;"/><text fill="#000000" font-family="sans-serif" font-size="13" lengthAdjust="spacing" textLength="24" x="272.4074" y="303.7222">1..0</text></g><!--MD5=[93758d6975f406c08b5b925395a854aa]
link Cours to Matiere--><g id="link_Cours_Matiere"><path codeLine="45" d="M264.722,316.14 C286.407,331.002 314.578,350.309 338.713,366.8497 " fill="none" id="Cours-Matiere" style="stroke:#454645;stroke-width:1.0;"/><text fill="#000000" font-family="sans-serif" font-size="13" lengthAdjust="spacing" textLength="24" x="272.4074" y="333.2364">1..n</text></g><!--MD5=[5a297baed85c8471bbc9c4fcb2fbd21d]
link Cours to Promotion--><g id="link_Cours_Promotion"><path codeLine="46" d="M261.778,259.937 C266.496,254.507 271.079,248.757 275,243 C309.691,192.068 299.599,168.441 335,118 C340.793,109.746 347.833,101.585 354.914,94.152 " fill="none" id="Cours-Promotion" style="stroke:#454645;stroke-width:1.0;"/><text fill="#000000" font-family="sans-serif" font-size="13" lengthAdjust="spacing" textLength="24" x="242.1666" y="248.8271">1..n</text></g><!--MD5=[dbb2fdd481a73162d623859d7b79b38c]
link Cours to Enseignant--><g id="link_Cours_Enseignant"><path codeLine="47" d="M264.722,264.568 C289.545,245.236 322.865,219.285 348.903,199.007 " fill="none" id="Cours-Enseignant" style="stroke:#454645;stroke-width:1.0;"/><text fill="#000000" font-family="sans-serif" font-size="13" lengthAdjust="spacing" textLength="24" x="272.4074" y="273.4452">1..n</text></g><!--MD5=[3923c041b210cfe22a8796c4008b840c]
link Etudiant to Promotion--><g id="link_Etudiant_Promotion"><path codeLine="48" d="M275.064,45.529 C290.274,47.709 307.544,50.184 323.989,52.54 " fill="none" id="Etudiant-to-Promotion" style="stroke:#454645;stroke-width:1.0;"/><polygon fill="none" points="336.946,54.397,331.5742,49.5863,325.0674,52.6946,330.4392,57.5053,336.946,54.397" style="stroke:#454645;stroke-width:1.0;"/><text fill="#000000" font-family="sans-serif" font-size="13" lengthAdjust="spacing" textLength="24" x="304.8957" y="66.4413">1..n</text></g><!--MD5=[65e079d45e9d3062a954e45c5c0153d7]
@startuml
!theme vibrant
left to right direction
class EDT{
}
class Usager{
  str:nom
}
class Etudiant{
  str:nom
}
class Invite
class Cours{
  str:type
}

class Enseignant{
  str:nom
}

class Salle{
  str:nom
  str:batiment
}

class Matiere{
  str:nom
  int:nb_heure
}

class Promotion{
  str:nom
}

class Gestionaire{
  str:nom
}

EDT o- Cours 
EDT "1..n"-up- Invite
EDT "1..n"-up- Usager 
Gestionaire -left-> Usager
Etudiant -left-> Usager
Enseignant -left-> Usager
Cours "1..0"-down- Salle
Cours "1..n"-down- Matiere
Cours "1..n" -down- Promotion
Cours "1..n"-down- Enseignant
Promotion "1..n" o-left- Etudiant
@enduml

@startuml
skinparam BackgroundColor FFFFFF
skinparam shadowing false
skinparam RoundCorner 7
skinparam ArrowColor 454645
skinparam FontColor 454645
skinparam SequenceLifeLineBorderColor 696969
skinparam SequenceGroupHeaderFontColor 454645
skinparam SequenceGroupFontColor 696969
skinparam SequenceGroupBorderColor 696969
skinparam SequenceGroupBorderThickness 1

skinparam sequenceDivider {
    BorderColor 454645
    BorderThickness 1
    FontColor 454645
}

skinparam participant {
    BackgroundColor FF6347
    BorderColor 454645
    FontColor FFFFFF
    BorderThickness 1.5
}

skinparam database {
    BackgroundColor 00FFFF
    BorderColor 454645
    FontColor 454645
}

skinparam entity {
    BackgroundColor FFE552
    BorderColor 454645
    FontColor 454645
}

skinparam note {
    BackgroundColor 7FFFD4
    BorderColor 454645
    FontColor 454645
    BorderThickness 1.5
}

skinparam actor {
    BackgroundColor 454645
    BorderColor 454645
    FontColor 454645
}

skinparam boundary {
    BackgroundColor FFE552
    BorderColor 454645
    FontColor 454645
}

skinparam control {
    BackgroundColor FFE552
    BorderColor 454645
    FontColor 454645
}

skinparam collections {
    BackgroundColor FF5F42
    BorderColor 454645
    FontColor 454645
}

skinparam queue {
    BackgroundColor FF6347
    BorderColor 454645
    FontColor FFF
    BorderThickness 1.5
}
left to right direction
class EDT{
}
class Usager{
  str:nom
}
class Etudiant{
  str:nom
}
class Invite
class Cours{
  str:type
}

class Enseignant{
  str:nom
}

class Salle{
  str:nom
  str:batiment
}

class Matiere{
  str:nom
  int:nb_heure
}

class Promotion{
  str:nom
}

class Gestionaire{
  str:nom
}

EDT o- Cours 
EDT "1..n"-up- Invite
EDT "1..n"-up- Usager 
Gestionaire -left-> Usager
Etudiant -left-> Usager
Enseignant -left-> Usager
Cours "1..0"-down- Salle
Cours "1..n"-down- Matiere
Cours "1..n" -down- Promotion
Cours "1..n"-down- Enseignant
Promotion "1..n" o-left- Etudiant
@enduml

PlantUML version 1.2022.13beta7(Unknown compile time)
(GPL source distribution)
Java Runtime: Java(TM) SE Runtime Environment
JVM: Java HotSpot(TM) 64-Bit Server VM
Default Encoding: UTF-8
Language: en
Country: US
--></g></svg>