<?xml version="1.0" encoding="UTF-8" standalone="no"?>
<svg xmlns="http://www.w3.org/2000/svg" xmlns:xlink="http://www.w3.org/1999/xlink" contentStyleType="text/css" height="353px" preserveAspectRatio="none" style="width:348px;height:353px;background:#FFFFFF;" version="1.1" viewBox="0 0 348 353" width="348px" zoomAndPan="magnify"><defs/><g><!--MD5=[f34344576382241f69e16aadfac8bff5]
cluster HyperPlanning--><g id="cluster_HyperPlanning"><path d="M117.5,6 L232.5,6 A5.25,5.25 0 0 1 236,9.5 L243,28.2969 L337.5,28.2969 A3.5,3.5 0 0 1 341,31.7969 L341,342.5 A3.5,3.5 0 0 1 337.5,346 L117.5,346 A3.5,3.5 0 0 1 114,342.5 L114,9.5 A3.5,3.5 0 0 1 117.5,6 " fill="#90EE90" style="stroke:#696969;stroke-width:1.0;"/><line style="stroke:#696969;stroke-width:1.0;" x1="114" x2="243" y1="28.2969" y2="28.2969"/><text fill="#000000" font-family="sans-serif" font-size="14" font-weight="bold" lengthAdjust="spacing" textLength="116" x="118" y="20.9951">HyperPlanning</text></g><g id="elem_voir progression cours"><ellipse cx="227.2599" cy="307.852" fill="#F1F1F1" rx="97.2599" ry="21.852" style="stroke:#181818;stroke-width:0.5;"/><text fill="#000000" font-family="sans-serif" font-size="14" lengthAdjust="spacing" textLength="158" x="148.2599" y="310.6987">voir progression cours</text></g><g id="elem_Filtrer vision edt"><ellipse cx="227.2839" cy="144.8568" fill="#F1F1F1" rx="79.7839" ry="18.3568" style="stroke:#181818;stroke-width:0.5;"/><text fill="#000000" font-family="sans-serif" font-size="14" lengthAdjust="spacing" textLength="118" x="166.5356" y="148.2613">Filtrer vision edt</text></g><g id="elem_voir E.D.T ext"><ellipse cx="227.4293" cy="57.7859" fill="#F1F1F1" rx="71.9293" ry="16.7859" style="stroke:#181818;stroke-width:0.5;"/><text fill="#000000" font-family="sans-serif" font-size="14" lengthAdjust="spacing" textLength="98" x="175.4293" y="61.5334">voir E.D.T ext</text></g><g id="elem_voir E.D.T perso"><ellipse cx="227.5591" cy="233.1118" fill="#F1F1F1" rx="78.5591" ry="18.1118" style="stroke:#181818;stroke-width:0.5;"/><text fill="#000000" font-family="sans-serif" font-size="14" lengthAdjust="spacing" textLength="115" x="167.8328" y="236.6525">voir E.D.T perso</text></g><!--MD5=[e8ef53871a935dc9c7bb89678d8a5eb1]
entity Etudiant--><g id="elem_Etudiant"><ellipse cx="36.5" cy="167" fill="#454645" rx="16" ry="16" style="stroke:#454645;stroke-width:1.5;"/><path d="M36.5,187 C40.5,187 43.5,187 47.5,183 C55.5,183 63.5,191 63.5,199 L63.5,203 C63.5,207 59.5,211 55.5,211 L17.5,211 C13.5,211 9.5,207 9.5,203 L9.5,199 C9.5,191 17.5,183 25.5,183 C29.5,187 32.5,187 36.5,187 " fill="#454645" style="stroke:#454645;stroke-width:1.5;"/><text fill="#454645" font-family="sans-serif" font-size="14" lengthAdjust="spacing" textLength="61" x="6" y="225.4951">Etudiant</text></g><!--MD5=[32496531d9669df9c0f74c2f47715fef]
link Etudiant to voir progression cours--><g id="link_Etudiant_voir progression cours"><path d="M64.2071,228.552 C75.6296,242.981 90.0239,258.353 106,269 C119.929,278.2829 136.229,285.4935 152.259,291.0436 " fill="none" id="Etudiant-to-voir progression cours" style="stroke:#454645;stroke-width:1.0;"/><polygon fill="#454645" points="157.222,292.7131,149.9672,286.0522,152.483,291.1188,147.4163,293.6346,157.222,292.7131" style="stroke:#454645;stroke-width:1.0;"/></g><!--MD5=[b83f3a45212ee9b9bb8a52f3122dc6ee]
link Etudiant to Filtrer vision edt--><g id="link_Etudiant_Filtrer vision edt"><path d="M67.0312,182.125 C93.2452,176.022 132.387,166.91 165.33,159.241 " fill="none" id="Etudiant-to-Filtrer vision edt" style="stroke:#454645;stroke-width:1.0;"/><polygon fill="#454645" points="170.561,158.023,160.8882,156.1688,165.6913,159.1572,162.703,163.9603,170.561,158.023" style="stroke:#454645;stroke-width:1.0;"/></g><!--MD5=[d858757b19d4c210e02ec93d74815bc3]
reverse link voir E.D.T ext to Etudiant--><g id="link_voir E.D.T ext_Etudiant"><path d="M177.298,72.966 C154.327,81.369 127.397,93.349 106,109 C90.7992,120.119 76.7415,135.241 65.3678,149.345 " fill="none" id="voir E.D.T ext-backto-Etudiant" style="stroke:#454645;stroke-width:1.0;"/><polygon fill="#454645" points="182.137,71.227,172.3145,70.5071,177.4317,72.9183,175.0205,78.0355,182.137,71.227" style="stroke:#454645;stroke-width:1.0;"/></g><!--MD5=[c0e4731e9fbcc15f480b1cd8d93730da]
link Etudiant to voir E.D.T perso--><g id="link_Etudiant_voir E.D.T perso"><path d="M67.0312,195.875 C93.5408,202.047 133.271,211.296 166.442,219.018 " fill="none" id="Etudiant-to-voir E.D.T perso" style="stroke:#454645;stroke-width:1.0;"/><polygon fill="#454645" points="171.706,220.244,163.8484,214.3062,166.8364,219.1095,162.0331,222.0975,171.706,220.244" style="stroke:#454645;stroke-width:1.0;"/></g><!--MD5=[3a190d7d050fe9ea94390bbf2122abda]
link Filtrer vision edt to voir E.D.T perso--><g id="link_Filtrer vision edt_voir E.D.T perso"><path d="M227.5,163.513 C227.5,176.942 227.5,195.205 227.5,209.638 " fill="none" id="Filtrer vision edt-to-voir E.D.T perso" style="stroke:#454645;stroke-width:1.0;stroke-dasharray:7.0,7.0;"/><polygon fill="#454645" points="227.5,214.766,231.5,205.766,227.5,209.766,223.5,205.766,227.5,214.766" style="stroke:#454645;stroke-width:1.0;"/><text fill="#000000" font-family="sans-serif" font-size="13" lengthAdjust="spacing" textLength="52" x="190" y="193.8169">extends</text></g><!--MD5=[4b0729f5a46c383436967d1668770110]
link Filtrer vision edt to voir E.D.T ext--><g id="link_Filtrer vision edt_voir E.D.T ext"><path d="M227.5,126.122 C227.5,112.591 227.5,94.321 227.5,80.108 " fill="none" id="Filtrer vision edt-to-voir E.D.T ext" style="stroke:#454645;stroke-width:1.0;stroke-dasharray:7.0,7.0;"/><polygon fill="#454645" points="227.5,75.072,223.5,84.072,227.5,80.072,231.5,84.072,227.5,75.072" style="stroke:#454645;stroke-width:1.0;"/><text fill="#000000" font-family="sans-serif" font-size="13" lengthAdjust="spacing" textLength="52" x="190" y="105.3169">extends</text></g><!--MD5=[ca204a0111267dd89a97f614938d8c7c]
@startuml
!theme vibrant
skinparam actorStyle awesome
left to right direction
actor Etudiant
package HyperPlanning #LightGreen{
Etudiant - -> (voir progression cours)
Etudiant - -> (Filtrer vision edt)
Etudiant -left-> (voir E.D.T ext)
Etudiant - -> (voir E.D.T perso)

(Filtrer vision edt) .> (voir E.D.T perso) : extends
(Filtrer vision edt) .> (voir E.D.T ext) : extends

}
@enduml

@startuml
skinparam BackgroundColor FFFFFF
skinparam shadowing false
skinparam RoundCorner 7
skinparam ArrowColor 454645
skinparam FontColor 454645
skinparam SequenceLifeLineBorderColor 696969
skinparam SequenceGroupHeaderFontColor 454645
skinparam SequenceGroupFontColor 696969
skinparam SequenceGroupBorderColor 696969
skinparam SequenceGroupBorderThickness 1

skinparam sequenceDivider {
    BorderColor 454645
    BorderThickness 1
    FontColor 454645
}

skinparam participant {
    BackgroundColor FF6347
    BorderColor 454645
    FontColor FFFFFF
    BorderThickness 1.5
}

skinparam database {
    BackgroundColor 00FFFF
    BorderColor 454645
    FontColor 454645
}

skinparam entity {
    BackgroundColor FFE552
    BorderColor 454645
    FontColor 454645
}

skinparam note {
    BackgroundColor 7FFFD4
    BorderColor 454645
    FontColor 454645
    BorderThickness 1.5
}

skinparam actor {
    BackgroundColor 454645
    BorderColor 454645
    FontColor 454645
}

skinparam boundary {
    BackgroundColor FFE552
    BorderColor 454645
    FontColor 454645
}

skinparam control {
    BackgroundColor FFE552
    BorderColor 454645
    FontColor 454645
}

skinparam collections {
    BackgroundColor FF5F42
    BorderColor 454645
    FontColor 454645
}

skinparam queue {
    BackgroundColor FF6347
    BorderColor 454645
    FontColor FFF
    BorderThickness 1.5
}
skinparam actorStyle awesome
left to right direction
actor Etudiant
package HyperPlanning #LightGreen{
Etudiant - -> (voir progression cours)
Etudiant - -> (Filtrer vision edt)
Etudiant -left-> (voir E.D.T ext)
Etudiant - -> (voir E.D.T perso)

(Filtrer vision edt) .> (voir E.D.T perso) : extends
(Filtrer vision edt) .> (voir E.D.T ext) : extends

}
@enduml

PlantUML version 1.2022.14beta6(Unknown compile time)
(GPL source distribution)
Java Runtime: Java(TM) SE Runtime Environment
JVM: Java HotSpot(TM) 64-Bit Server VM
Default Encoding: UTF-8
Language: en
Country: US
--></g></svg>