<?xml version="1.0" encoding="UTF-8" standalone="no"?>
<svg xmlns="http://www.w3.org/2000/svg" xmlns:xlink="http://www.w3.org/1999/xlink" contentStyleType="text/css" height="247.9167px" preserveAspectRatio="none" style="width:3213px;height:247px;" version="1.1" viewBox="0 0 3213 247" width="3213.5417px" zoomAndPan="magnify"><defs/><g><!--cluster HyperPlanning--><g id="cluster_HyperPlanning"><path d="M20.8333,124.4792 L20.8333,125.063 L31.5341,123.3283 L42.2348,125.0161 L52.9356,125.5894 L63.6364,122.4975 L74.3371,124.2633 L85.0379,123.2945 L95.7386,123.4139 L106.4394,124.2898 L117.1402,122.5587 L127.8409,126.0171 L138.5417,124.4792 L142.7083,128.6458 L142.1449,128.4939 L143.9899,134.0083 L146.0112,139.5702 L147.0066,144.8556 L148.6027,150.3029 L150,155.6966 L150,155.6079 L160.3989,156.1925 L170.7978,156.3609 L181.1967,157.3235 L191.5956,157.5607 L201.9945,157.5834 L212.3933,156.4039 L222.7922,156.9844 L233.1911,157.6473 L243.59,153.6933 L253.9889,157.5814 L264.3878,154.873 L274.7867,157.1794 L285.1856,154.3216 L295.5845,155.5063 L305.9834,157.7566 L316.3823,155.5612 L326.7811,155.9891 L337.18,156.6372 L347.5789,156.8528 L357.9778,155.6858 L368.3767,156.4944 L378.7756,154.1066 L389.1745,156.4866 L399.5734,157.2194 L409.9723,156.9314 L420.3712,157.3995 L430.7701,154.3547 L441.1689,153.885 L451.5678,153.9705 L461.9667,155.5331 L472.3656,155.1507 L482.7645,157.5894 L493.1634,155.2114 L503.5623,154.7437 L513.9612,156.3307 L524.3601,153.8443 L534.759,154.2546 L545.1578,157.4993 L555.5567,156.9068 L565.9556,157.7369 L576.3545,154.8027 L586.7534,156.5833 L597.1523,157.3367 L607.5512,154.3844 L617.9501,155.4303 L628.349,156.0466 L638.7479,157.5071 L649.1468,155.685 L659.5456,156.9815 L669.9445,154.1583 L680.3434,153.8153 L690.7423,157.0955 L701.1412,153.7051 L711.5401,157.1104 L721.939,156.2706 L732.3379,154.9524 L742.7368,154.7139 L753.1357,156.9709 L763.5346,154.8651 L773.9334,157.3407 L784.3323,154.1612 L794.7312,157.4117 L805.1301,157.0419 L815.529,156.3771 L825.9279,155.8278 L836.3268,157.715 L846.7257,157.401 L857.1246,156.1668 L867.5235,156.4416 L877.9224,155.3348 L888.3212,157.6868 L898.7201,156.1268 L909.119,156.176 L919.5179,154.0068 L929.9168,154.571 L940.3157,157.1709 L950.7146,156.8904 L961.1135,155.5774 L971.5124,154.8017 L981.9113,155.0885 L992.3102,153.7906 L1002.709,156.8487 L1013.1079,157.751 L1023.5068,157.1588 L1033.9057,157.627 L1044.3046,155.3168 L1054.7035,155.9389 L1065.1024,154.62 L1075.5013,156.4856 L1085.9002,156.3821 L1096.2991,157.231 L1106.698,155.0587 L1117.0968,155.3233 L1127.4957,156.9284 L1137.8946,157.2725 L1148.2935,154.2729 L1158.6924,155.1581 L1169.0913,156.1112 L1179.4902,153.9998 L1189.8891,156.6783 L1200.288,156.4133 L1210.6869,155.4167 L1221.0858,156.0918 L1231.4846,157.7207 L1241.8835,154.8275 L1252.2824,156.5716 L1262.6813,156.4901 L1273.0802,156.0182 L1283.4791,156.0881 L1293.878,156.0118 L1304.2769,153.9628 L1314.6758,154.5832 L1325.0747,154.4146 L1335.4735,155.8739 L1345.8724,155.9414 L1356.2713,156.1459 L1366.6702,154.8884 L1377.0691,155.5091 L1387.468,155.3627 L1397.8669,157.299 L1408.2658,156.8815 L1418.6647,154.3479 L1429.0636,155.494 L1439.4625,154.0932 L1449.8613,156.4977 L1460.2602,157.3869 L1470.6591,157.2093 L1481.058,154.4867 L1491.4569,156.9854 L1501.8558,153.6333 L1512.2547,156.2526 L1522.6536,154.8652 L1533.0525,155.9653 L1543.4514,156.3642 L1553.8503,157.008 L1564.2491,153.6968 L1574.648,157.0174 L1585.0469,156.1915 L1595.4458,156.6836 L1605.8447,157.7738 L1616.2436,155.7118 L1626.6425,156.1835 L1637.0414,156.2895 L1647.4403,156.2445 L1657.8392,155.6944 L1668.2381,157.6708 L1678.6369,154.0029 L1689.0358,157.2668 L1699.4347,153.9633 L1709.8336,154.1957 L1720.2325,155.8078 L1730.6314,155.7752 L1741.0303,154.3276 L1751.4292,156.8458 L1761.8281,155.999 L1772.227,157.7151 L1782.6259,157.5497 L1793.0247,154.4515 L1803.4236,154.5913 L1813.8225,155.3378 L1824.2214,156.6842 L1834.6203,156.816 L1845.0192,156.5332 L1855.4181,154.7467 L1865.817,157.4643 L1876.2159,157.4571 L1886.6148,155.5653 L1897.0137,155.0326 L1907.4125,154.5817 L1917.8114,155.1006 L1928.2103,156.0783 L1938.6092,155.5066 L1949.0081,154.5361 L1959.407,157.0504 L1969.8059,154.4218 L1980.2048,157.0921 L1990.6037,156.8834 L2001.0026,156.7296 L2011.4015,157.6202 L2021.8003,155.0136 L2032.1992,154.8615 L2042.5981,157.138 L2052.997,154.0386 L2063.3959,155.0466 L2073.7948,156.0174 L2084.1937,155.8874 L2094.5926,154.7009 L2104.9915,155.5772 L2115.3904,157.7649 L2125.7892,157.498 L2136.1881,154.0403 L2146.587,155.9147 L2156.9859,154.2691 L2167.3848,155.6235 L2177.7837,156.5105 L2188.1826,156.8629 L2198.5815,153.8501 L2208.9804,156.8092 L2219.3793,155.72 L2229.7782,154.154 L2240.177,154.3881 L2250.5759,156.6038 L2260.9748,156.3907 L2271.3737,155.6509 L2281.7726,153.8297 L2292.1715,157.5248 L2302.5704,154.8304 L2312.9693,154.2298 L2323.3682,155.5096 L2333.7671,157.3347 L2344.166,157.4061 L2354.5648,155.7942 L2364.9637,155.2767 L2375.3626,156.1682 L2385.7615,156.2139 L2396.1604,154.2861 L2406.5593,156.8465 L2416.9582,157.2488 L2427.3571,155.0973 L2437.756,154.5044 L2448.1549,157.5706 L2458.5538,155.755 L2468.9526,155.6962 L2479.3515,156.5272 L2489.7504,153.903 L2500.1493,157.1688 L2510.5482,155.6537 L2520.9471,157.5544 L2531.346,155.097 L2541.7449,156.8327 L2552.1438,154.4633 L2562.5427,156.3772 L2572.9416,156.7502 L2583.3404,154.7873 L2593.7393,156.705 L2604.1382,154.1093 L2614.5371,154.3897 L2624.936,157.5934 L2635.3349,157.5977 L2645.7338,157.2758 L2656.1327,154.6956 L2666.5316,156.7639 L2676.9305,154.3853 L2687.3294,155.8581 L2697.7282,155.6931 L2708.1271,154.9676 L2718.526,157.4075 L2728.9249,156.928 L2739.3238,154.8056 L2749.7227,157.1595 L2760.1216,155.9518 L2770.5205,154.0755 L2780.9194,155.0485 L2791.3183,154.2375 L2801.7172,155.3103 L2812.116,153.9495 L2822.5149,154.0295 L2832.9138,155.8919 L2843.3127,155.3622 L2853.7116,155.5339 L2864.1105,155.2988 L2874.5094,156.1614 L2884.9083,154.1547 L2895.3072,156.1412 L2905.7061,153.6323 L2916.1049,156.5188 L2926.5038,157.3432 L2936.9027,157.1469 L2947.3016,156.7003 L2957.7005,156.2306 L2968.0994,155.9903 L2978.4983,153.9187 L2988.8972,156.937 L2999.2961,156.6123 L3009.695,155.2706 L3020.0939,155.6805 L3030.4927,155.1172 L3040.8916,156.3013 L3051.2905,157.587 L3061.6894,154.7136 L3072.0883,156.999 L3082.4872,155.4488 L3092.8861,154.6431 L3103.285,154.4969 L3113.6839,153.9058 L3124.0828,154.472 L3134.4817,155.7974 L3144.8805,156.4549 L3155.2794,157.2972 L3165.6783,156.8635 L3176.0772,153.7206 L3186.4761,157.4162 L3196.875,155.6966 L3201.0417,159.8633 L3202.392,159.8633 L3202.5436,170.1358 L3202.4913,180.4083 L3199.2108,190.6808 L3200.3258,200.9533 L3201.9193,211.2258 L3199.7042,221.4983 L3201.0417,231.7708 L3196.875,235.9375 L3196.875,235.6517 L3186.4617,236.1236 L3176.0485,236.8432 L3165.6352,236.0647 L3155.222,238.0062 L3144.8087,237.0803 L3134.3955,236.6488 L3123.9822,234.4377 L3113.569,236.8785 L3103.1557,234.3417 L3092.7425,236.7866 L3082.3292,235.9592 L3071.916,236.7693 L3061.5027,235.6947 L3051.0895,235.3928 L3040.6762,233.8795 L3030.263,235.3419 L3019.8497,233.9794 L3009.4365,235.2538 L2999.0232,237.1538 L2988.61,236.3839 L2978.1967,234.6833 L2967.7835,236.6204 L2957.3702,236.1197 L2946.957,237.4466 L2936.5437,237.5068 L2926.1305,236.1977 L2915.7172,235.4403 L2905.304,235.3418 L2894.8907,235.9197 L2884.4775,237.7962 L2874.0642,234.0661 L2863.651,235.4823 L2853.2377,236.6785 L2842.8245,237.97 L2832.4112,236.5261 L2821.998,235.3869 L2811.5847,233.8876 L2801.1714,234.7603 L2790.7582,235.3211 L2780.3449,236.8815 L2769.9317,236.9638 L2759.5184,236.0814 L2749.1052,235.5682 L2738.6919,233.9386 L2728.2787,236.2958 L2717.8654,237.147 L2707.4522,237.8343 L2697.0389,236.2106 L2686.6257,236.1596 L2676.2124,235.3259 L2665.7992,236.6284 L2655.3859,234.6321 L2644.9727,237.371 L2634.5594,235.0884 L2624.1462,234.4648 L2613.7329,236.6511 L2603.3197,237.2482 L2592.9064,236.0967 L2582.4932,235.601 L2572.0799,236.376 L2561.6667,235.8689 L2551.2534,235.6733 L2540.8402,236.151 L2530.4269,235.0153 L2520.0137,237.0196 L2509.6004,237.8472 L2499.1872,234.9553 L2488.7739,235.2865 L2478.3607,234.6359 L2467.9474,236.5956 L2457.5342,235.6769 L2447.1209,237.4691 L2436.7077,235.1035 L2426.2944,234.9406 L2415.8811,236.762 L2405.4679,235.3138 L2395.0546,236.679 L2384.6414,236.7143 L2374.2281,237.1482 L2363.8149,234.5907 L2353.4016,236.182 L2342.9884,237.4238 L2332.5751,234.429 L2322.1619,237.3385 L2311.7486,234.9943 L2301.3354,236.3729 L2290.9221,237.7507 L2280.5089,234.1863 L2270.0956,237.9434 L2259.6824,235.7198 L2249.2691,235.0322 L2238.8559,237.969 L2228.4426,234.0272 L2218.0294,237.6198 L2207.6161,234.8228 L2197.2029,236.7434 L2186.7896,237.9654 L2176.3764,235.5249 L2165.9631,234.7507 L2155.5499,234.9004 L2145.1366,235.4312 L2134.7234,236.7599 L2124.3101,234.3951 L2113.8969,237.3581 L2103.4836,237.5055 L2093.0704,233.9873 L2082.6571,235.541 L2072.2439,234.6521 L2061.8306,236.4155 L2051.4173,233.9612 L2041.0041,236.3143 L2030.5908,236.9339 L2020.1776,235.8019 L2009.7643,236.3706 L1999.3511,235.9768 L1988.9378,236.6243 L1978.5246,237.9317 L1968.1113,237.7649 L1957.6981,236.687 L1947.2848,236.0722 L1936.8716,236.6143 L1926.4583,236.3621 L1916.0451,236.4726 L1905.6318,237.2093 L1895.2186,233.9066 L1884.8053,237.1384 L1874.3921,237.3433 L1863.9788,234.0354 L1853.5656,237.6901 L1843.1523,236.3119 L1832.7391,235.5673 L1822.3258,234.1487 L1811.9126,235.0204 L1801.4993,237.6705 L1791.0861,234.308 L1780.6728,237.4521 L1770.2596,235.3027 L1759.8463,236.8148 L1749.4331,234.5696 L1739.0198,235.2862 L1728.6066,237.8221 L1718.1933,236.631 L1707.7801,235.3933 L1697.3668,236.562 L1686.9536,237.4643 L1676.5403,236.5015 L1666.127,237.6579 L1655.7138,237.3263 L1645.3005,236.4304 L1634.8873,235.577 L1624.474,235.1519 L1614.0608,234.9211 L1603.6475,236.7089 L1593.2343,236.0363 L1582.821,237.6528 L1572.4078,234.9977 L1561.9945,235.5286 L1551.5813,233.9789 L1541.168,236.8881 L1530.7548,234.1138 L1520.3415,233.965 L1509.9283,235.1052 L1499.515,234.9726 L1489.1018,236.6482 L1478.6885,234.8191 L1468.2753,237.9651 L1457.862,235.3829 L1447.4488,236.4756 L1437.0355,237.3317 L1426.6223,235.1385 L1416.209,236.2385 L1405.7958,236.2534 L1395.3825,237.3952 L1384.9693,233.9074 L1374.556,235.4452 L1364.1428,236.124 L1353.7295,237.6922 L1343.3163,234.4718 L1332.903,236.2917 L1322.4898,236.616 L1312.0765,237.6131 L1301.6633,233.8632 L1291.25,234.531 L1280.8367,234.2179 L1270.4235,237.0622 L1260.0102,234.9381 L1249.597,236.3373 L1239.1837,234.1549 L1228.7705,234.6716 L1218.3572,236.3477 L1207.944,234.1244 L1197.5307,234.1577 L1187.1175,237.8595 L1176.7042,236.177 L1166.291,237.3945 L1155.8777,237.1439 L1145.4645,237.8991 L1135.0512,236.5337 L1124.638,235.206 L1114.2247,233.8996 L1103.8115,237.7392 L1093.3982,234.5731 L1082.985,234.6854 L1072.5717,234.0493 L1062.1585,237.0381 L1051.7452,235.6029 L1041.332,234.5866 L1030.9187,235.6778 L1020.5055,236.099 L1010.0922,234.3576 L999.679,237.5577 L989.2657,235.909 L978.8525,234.7781 L968.4392,235.4304 L958.026,237.8471 L947.6127,234.0575 L937.1995,236.482 L926.7862,235.7019 L916.373,234.3236 L905.9597,236.4876 L895.5464,237.743 L885.1332,237.0753 L874.7199,236.9137 L864.3067,233.8638 L853.8934,236.3991 L843.4802,234.4214 L833.0669,237.0274 L822.6537,237.0644 L812.2404,234.4327 L801.8272,235.5092 L791.4139,236.7587 L781.0007,235.9924 L770.5874,236.7135 L760.1742,237.7016 L749.7609,235.9409 L739.3477,235.8397 L728.9344,237.5782 L718.5212,235.3061 L708.1079,235.506 L697.6947,236.397 L687.2814,235.0268 L676.8682,236.7136 L666.4549,234.2144 L656.0417,235.0671 L645.6284,233.9898 L635.2152,235.9752 L624.8019,236.1818 L614.3887,236.6752 L603.9754,237.2931 L593.5622,234.2825 L583.1489,236.2342 L572.7357,234.6468 L562.3224,233.9428 L551.9092,234.5763 L541.4959,233.9734 L531.0827,234.4656 L520.6694,237.5164 L510.2561,237.2249 L499.8429,237.1964 L489.4296,234.0362 L479.0164,236.0971 L468.6031,233.8837 L458.1899,234.3181 L447.7766,235.8283 L437.3634,235.1746 L426.9501,234.4355 L416.5369,235.3653 L406.1236,234.1312 L395.7104,235.4107 L385.2971,234.9869 L374.8839,235.2712 L364.4706,234.9029 L354.0574,233.9757 L343.6441,234.9236 L333.2309,237.4427 L322.8176,233.8914 L312.4044,237.9616 L301.9911,238.0116 L291.5779,235.7227 L281.1646,234.2678 L270.7514,235.3395 L260.3381,234.7948 L249.9249,234.7665 L239.5116,236.2769 L229.0984,237.2199 L218.6851,236.1 L208.2719,234.1629 L197.8586,236.7114 L187.4454,234.7926 L177.0321,235.2957 L166.6189,235.3469 L156.2056,235.356 L145.7923,234.4354 L135.3791,236.7485 L124.9658,235.8166 L114.5526,233.9215 L104.1393,236.7557 L93.7261,237.1674 L83.3128,235.7114 L72.8996,234.5666 L62.4863,234.7662 L52.0731,235.2265 L41.6598,234.9278 L31.2466,237.3879 L20.8333,235.9375 L16.6667,231.7708 L16.2209,231.7708 L16.2381,221.4583 L17.0438,211.1458 L17.4696,200.8333 L17.9591,190.5208 L15.3207,180.2083 L18.6637,169.8958 L18.1694,159.5833 L14.6743,149.2708 L14.8741,138.9583 L16.6667,128.6458 L20.8333,124.4792 " fill="#000000" style="stroke:#333333;stroke-width:2.0833333333333335;"/><path d="M16.6667,155.6966 L16.6667,155.9885 L26.9231,155.1212 L37.1795,155.9651 L47.4359,156.2517 L57.6923,154.7058 L67.9487,155.5887 L78.2051,155.1043 L88.4615,155.164 L98.7179,155.602 L108.9744,154.7364 L119.2308,156.4656 L129.4872,154.8212 L139.7436,155.4219 L150,155.6966 " fill="#000000" style="stroke:#333333;stroke-width:2.0833333333333335;"/><text fill="#333333" font-family="&quot;Segoe Print&quot;" font-size="12.5" font-weight="bold" lengthAdjust="spacing" textLength="109.375" x="26.0417" y="143.3736">HyperPlanning</text></g><g id="elem_voir E.D.T ext. jour"><polygon fill="#474747" points="3182.1921,196.7555,3180.2822,200.4144,3172.9925,203.1983,3164.6283,205.9719,3157.7234,209.1933,3144.6959,211.0301,3132.7945,213.0038,3118.8257,214.2773,3103.4352,214.8874,3090.0691,215.5129,3071.9403,214.5289,3060.3719,214.4195,3045.4101,212.8719,3031.0142,210.7363,3020.9271,208.8315,3010.792,206.163,3003.2094,203.3282,2996.9321,200.0726,2993.2757,196.7388,2991.2152,193.157,2992.1746,189.7257,2995.6556,186.4222,3002.4788,183.5327,3009.7842,180.5197,3018.9182,177.8024,3033.9539,176.4198,3043.1762,173.8402,3059.521,173.1041,3071.9909,171.8334,3089.5685,172.1604,3103.4361,172.1807,3115.9575,172.5056,3131.8315,174.2595,3144.2294,175.9433,3155.0415,178.012,3164.5861,180.547,3173.4952,183.6818,3178.4937,186.6482,3184.1871,190.4426,3183.1799,193.3307" style="stroke:#333333;stroke-width:2.0833333333333335;"/><text fill="#FFFFFF" font-family="&quot;Segoe Print&quot;" font-size="12.5" lengthAdjust="spacing" textLength="113.5417" x="3031.5358" y="195.7387">voir E.D.T ext. jour</text></g><g id="elem_voir E.D.T ext. semaine"><polygon fill="#474747" points="2953.9265,197.2566,2951.7923,201.2954,2943.6464,204.3686,2934.2998,207.4303,2926.5839,210.9863,2912.0264,213.0138,2898.7271,215.1925,2883.1176,216.5983,2865.9195,217.2718,2850.9835,217.9622,2830.7255,216.8761,2817.7983,216.7553,2801.0791,215.047,2784.9925,212.6895,2773.7206,210.5869,2762.3951,207.6412,2753.9219,204.5119,2746.9074,200.9181,2742.8215,197.2381,2740.519,193.2842,2741.5911,189.4965,2745.481,185.8499,2753.1055,182.6603,2761.2689,179.3343,2771.4758,176.3347,2788.2774,174.8085,2798.5829,171.961,2816.8474,171.1484,2830.782,169.7458,2850.4241,170.1067,2865.9204,170.1291,2879.9125,170.4878,2897.651,172.4238,2911.505,174.2825,2923.587,176.5661,2934.2527,179.3644,2944.2082,182.8248,2949.7938,186.0994,2956.1559,190.2879,2955.0303,193.476" style="stroke:#333333;stroke-width:2.0833333333333335;"/><text fill="#FFFFFF" font-family="&quot;Segoe Print&quot;" font-size="12.5" lengthAdjust="spacing" textLength="142.7083" x="2777.6598" y="195.901">voir E.D.T ext. semaine</text></g><g id="elem_voir E.D.T ext. mois"><polygon fill="#474747" points="2703.4753,197.2916,2701.5189,201.0293,2694.0517,203.8733,2685.4837,206.7066,2678.4105,209.9974,2665.0657,211.8738,2652.8743,213.89,2638.5651,215.1909,2622.7996,215.8142,2609.1079,216.4532,2590.5374,215.448,2578.6871,215.3362,2563.3608,213.7553,2548.6141,211.5736,2538.2813,209.6278,2527.8993,206.9018,2520.1319,204.0059,2513.7017,200.6801,2509.9562,197.2746,2507.8455,193.6155,2508.8283,190.1103,2512.3941,186.7356,2519.3835,183.7839,2526.8669,180.7059,2536.2235,177.9301,2551.6254,176.5177,2561.0724,173.8826,2577.8155,173.1306,2590.5892,171.8325,2608.5951,172.1665,2622.8005,172.1873,2635.627,172.5192,2651.8878,174.3109,2664.5877,176.0309,2675.6633,178.1443,2685.4404,180.7338,2694.5666,183.9362,2699.6869,186.9665,2705.519,190.8427,2704.4872,193.793" style="stroke:#333333;stroke-width:2.0833333333333335;"/><text fill="#FFFFFF" font-family="&quot;Segoe Print&quot;" font-size="12.5" lengthAdjust="spacing" textLength="119.7917" x="2547.4066" y="196.2045">voir E.D.T ext. mois</text></g><g id="elem_voir E.D.T ext. Semestre"><polygon fill="#474747" points="2470.4756,197.5083,2468.2744,201.6608,2459.8726,204.8204,2450.2323,207.9682,2442.2739,211.6243,2427.2589,213.7089,2413.5418,215.9488,2397.4418,217.3941,2379.7032,218.0866,2364.2979,218.7965,2343.4034,217.6798,2330.07,217.5556,2312.8255,215.7992,2296.2333,213.3754,2284.6073,211.2136,2272.926,208.1851,2264.1865,204.9678,2256.9515,201.2729,2252.7372,197.4894,2250.3624,193.4243,2251.4682,189.53,2255.4803,185.7808,2263.3444,182.5015,2271.7643,179.0819,2282.2919,175.998,2299.6215,174.4288,2310.2508,171.5012,2329.0892,170.6657,2343.4616,169.2236,2363.721,169.5947,2379.7043,169.6177,2394.136,169.9865,2412.4319,171.9771,2426.7212,173.888,2439.1829,176.2359,2450.1836,179.1129,2460.452,182.6706,2466.2131,186.0373,2472.7751,190.3436,2471.6142,193.6214" style="stroke:#333333;stroke-width:2.0833333333333335;"/><text fill="#FFFFFF" font-family="&quot;Segoe Print&quot;" font-size="12.5" lengthAdjust="spacing" textLength="151.0417" x="2286.7457" y="196.0515">voir E.D.T ext. Semestre</text></g><g id="elem_voir E.D.T ext. Annee"><polygon fill="#474747" points="2213.1685,197.0732,2211.1406,200.9319,2203.4006,203.8679,2194.5197,206.7931,2187.1883,210.1905,2173.356,212.1276,2160.7194,214.2091,2145.8876,215.5521,2129.5463,216.1956,2115.3545,216.8553,2096.1058,215.8176,2083.8227,215.7022,2067.9366,214.07,2052.6514,211.8177,2041.9412,209.8089,2031.18,206.9946,2023.1289,204.0049,2016.4639,200.5714,2012.5816,197.0556,2010.3938,193.278,2011.4125,189.6593,2015.1085,186.1753,2022.3532,183.128,2030.1099,179.9503,2039.8082,177.0846,2055.7727,175.6264,2065.5647,172.9059,2082.9192,172.1296,2096.1595,170.7895,2114.823,171.1343,2129.5473,171.1557,2142.8422,171.4984,2159.6969,173.3481,2172.8606,175.1239,2184.3407,177.3056,2194.4749,179.9791,2203.9344,183.2852,2209.2417,186.4137,2215.2868,190.4153,2214.2173,193.4612" style="stroke:#333333;stroke-width:2.0833333333333335;"/><text fill="#FFFFFF" font-family="&quot;Segoe Print&quot;" font-size="12.5" lengthAdjust="spacing" textLength="129.1667" x="2048.8998" y="195.8782">voir E.D.T ext. Annee</text></g><g id="elem_voir E.D.T ext. salle"><polygon fill="#474747" points="1974.0537,197.2015,1972.1051,200.926,1964.6677,203.7598,1956.134,206.5832,1949.0891,209.8623,1935.7976,211.732,1923.6549,213.7411,1909.403,215.0374,1893.7005,215.6585,1880.0634,216.2952,1861.5672,215.2936,1849.7643,215.1822,1834.4992,213.6068,1819.8115,211.4329,1809.5199,209.494,1799.1794,206.7777,1791.4431,203.892,1785.0386,200.578,1781.308,197.1846,1779.2058,193.5385,1780.1846,190.0457,1783.7362,186.683,1790.6977,183.7417,1798.1511,180.6746,1807.4703,177.9087,1822.8107,176.5012,1832.22,173.8755,1848.8961,173.1261,1861.6188,171.8327,1879.5527,172.1655,1893.7014,172.1861,1906.4766,172.5169,1922.6724,174.3022,1935.3216,176.0162,1946.3529,178.122,1956.0909,180.7024,1965.1806,183.8934,1970.2805,186.9131,1976.0893,190.7755,1975.0616,193.7153" style="stroke:#333333;stroke-width:2.0833333333333335;"/><text fill="#FFFFFF" font-family="&quot;Segoe Print&quot;" font-size="12.5" lengthAdjust="spacing" textLength="118.75" x="1818.8902" y="196.1263">voir E.D.T ext. salle</text></g><g id="elem_voir E.D.T Perso jour"><polygon fill="#474747" points="1742.0347,197.3172,1740.0308,201.1352,1732.3826,204.0403,1723.6069,206.9346,1716.3623,210.2961,1702.6939,212.2128,1690.207,214.2723,1675.551,215.6012,1659.4033,216.2379,1645.3797,216.8906,1626.359,215.8639,1614.2215,215.7497,1598.5236,214.1347,1583.4195,211.9062,1572.8362,209.9185,1562.2025,207.134,1554.2468,204.1758,1547.6608,200.7785,1543.8244,197.2998,1541.6626,193.5621,1542.6692,189.9815,1546.3215,186.5343,1553.4803,183.5191,1561.1451,180.3749,1570.7285,177.5394,1586.5038,176.0967,1596.1798,173.4049,1613.3287,172.6367,1626.4121,171.3108,1644.8545,171.652,1659.4042,171.6731,1672.5417,172.0122,1689.1966,173.8424,1702.2044,175.5994,1713.5484,177.7582,1723.5626,180.4034,1732.91,183.6746,1738.1544,186.7701,1744.1279,190.7296,1743.0711,193.7433" style="stroke:#333333;stroke-width:2.0833333333333335;"/><text fill="#FFFFFF" font-family="&quot;Segoe Print&quot;" font-size="12.5" lengthAdjust="spacing" textLength="126.0417" x="1580.5096" y="196.1585">voir E.D.T Perso jour</text></g><g id="elem_voir E.D.T Perso semaine"><polygon fill="#474747" points="1504.5731,197.3786,1502.3379,201.5886,1493.8065,204.792,1484.0175,207.9834,1475.9365,211.6901,1460.6899,213.8036,1446.7612,216.0746,1430.4129,217.5399,1412.4007,218.242,1396.7578,218.9617,1375.541,217.8295,1362.0019,217.7036,1344.4915,215.9229,1327.6434,213.4655,1315.8381,211.2738,1303.9766,208.2033,1295.1023,204.9414,1287.7558,201.1954,1283.4765,197.3594,1281.0651,193.238,1282.1878,189.2898,1286.2618,185.4886,1294.2473,182.1639,1302.7971,178.6969,1313.487,175.5703,1331.0838,173.9794,1341.8771,171.0113,1361.0061,170.1642,1375.6001,168.7022,1396.172,169.0784,1412.4017,169.1017,1427.0561,169.4756,1445.6341,171.4937,1460.1439,173.4311,1472.7977,175.8115,1483.9682,178.7284,1494.3949,182.3354,1500.2448,185.7487,1506.908,190.1147,1505.7292,193.4379" style="stroke:#333333;stroke-width:2.0833333333333335;"/><text fill="#FFFFFF" font-family="&quot;Segoe Print&quot;" font-size="12.5" lengthAdjust="spacing" textLength="155.2083" x="1317.0909" y="195.8706">voir E.D.T Perso semaine</text></g><g id="elem_voir E.D.T Perso mois"><polygon fill="#474747" points="1244.7387,197.3523,1242.6866,201.252,1234.8542,204.2193,1225.8672,207.1756,1218.4481,210.6091,1204.4506,212.5669,1191.663,214.6705,1176.6541,216.0278,1160.1176,216.6782,1145.7562,217.3448,1126.2775,216.2961,1113.8477,216.1795,1097.7718,214.5299,1082.304,212.2537,1071.4658,210.2235,1060.576,207.3793,1052.4288,204.3577,1045.6841,200.8877,1041.7554,197.3345,1039.5416,193.5168,1040.5724,189.8595,1044.3126,186.3385,1051.6438,183.2587,1059.4932,180.0473,1069.3073,177.1511,1085.4625,175.6774,1095.3716,172.928,1112.9334,172.1434,1126.3319,170.789,1145.2184,171.1375,1160.1185,171.1591,1173.5723,171.5054,1190.6283,173.3749,1203.9493,175.1695,1215.5665,177.3745,1225.8218,180.0764,1235.3943,183.4176,1240.7651,186.5794,1246.8824,190.6236,1245.8001,193.7019" style="stroke:#333333;stroke-width:2.0833333333333335;"/><text fill="#FFFFFF" font-family="&quot;Segoe Print&quot;" font-size="12.5" lengthAdjust="spacing" textLength="132.2917" x="1077.7166" y="196.1207">voir E.D.T Perso mois</text></g><g id="elem_voir E.D.T Perso Semestre"><polygon fill="#474747" points="1003.0534,197.649,1000.7495,201.9754,991.956,205.2673,981.8663,208.5469,973.5369,212.356,957.8219,214.5279,943.4652,216.8617,926.6146,218.3675,908.049,219.089,891.9255,219.8286,870.0567,218.6651,856.1017,218.5357,838.0533,216.7058,820.6875,214.1805,808.5195,211.9282,796.2935,208.7729,787.1466,205.4208,779.5743,201.5712,775.1636,197.6293,772.678,193.3939,773.8353,189.3366,778.0345,185.4304,786.2653,182.0138,795.0777,178.451,806.0962,175.238,824.2336,173.6031,835.3585,170.5529,855.0753,169.6825,870.1177,168.18,891.3217,168.5666,908.0501,168.5906,923.1547,168.9748,942.3035,171.0487,957.259,173.0397,970.3017,175.4859,981.8154,178.4833,992.5624,182.19,998.5921,185.6977,1005.4601,190.1843,1004.245,193.5993" style="stroke:#333333;stroke-width:2.0833333333333335;"/><text fill="#FFFFFF" font-family="&quot;Segoe Print&quot;" font-size="12.5" lengthAdjust="spacing" textLength="163.5417" x="808.0285" y="196.0373">voir E.D.T Perso Semestre</text></g><g id="elem_voir E.D.T Perso Annee"><polygon fill="#474747" points="735.9155,197.1609,733.7896,201.1857,725.6755,204.2482,716.3652,207.2992,708.6793,210.8429,694.1784,212.8634,680.9308,215.0344,665.3821,216.4353,648.2508,217.1065,633.3729,217.7945,613.1936,216.7122,600.3167,216.5918,583.6626,214.8894,567.6385,212.5401,556.4105,210.4448,545.1291,207.5094,536.6888,204.391,529.7015,200.8098,525.6315,197.1426,523.338,193.2024,524.4059,189.4279,528.2806,185.794,535.8756,182.6155,544.0072,179.301,554.1744,176.312,570.9106,174.791,581.1761,171.9535,599.3696,171.1437,613.2499,169.7459,632.8157,170.1056,648.2517,170.1279,662.1894,170.4853,679.8589,172.4147,693.659,174.2669,705.6941,176.5426,716.3182,179.3311,726.235,182.7795,731.7989,186.0426,738.1363,190.2165,737.0151,193.3935" style="stroke:#333333;stroke-width:2.0833333333333335;"/><text fill="#FFFFFF" font-family="&quot;Segoe Print&quot;" font-size="12.5" lengthAdjust="spacing" textLength="141.6667" x="560.5777" y="195.8179">voir E.D.T Perso Annee</text></g><g id="elem_voir E.D.T Perso salle"><polygon fill="#474747" points="487.1646,197.259,485.1205,201.145,477.319,204.1019,468.3675,207.0477,460.9777,210.4692,447.0354,212.42,434.2983,214.5163,419.3485,215.8688,402.8773,216.5169,388.5726,217.1812,369.1708,216.1361,356.79,216.0199,340.7775,214.3762,325.3707,212.108,314.5753,210.0849,303.7285,207.2507,295.6134,204.2398,288.8954,200.782,284.9822,197.2413,282.7771,193.437,283.8038,189.7926,287.5293,186.2839,294.8316,183.215,302.6499,180.0149,312.4254,177.1288,328.5168,175.6603,338.3868,172.9206,355.8793,172.1387,369.2249,170.7892,388.0369,171.1364,402.8782,171.158,416.2789,171.5031,433.2676,173.3659,446.5361,175.1543,458.1075,177.3515,468.3223,180.0438,477.857,183.3733,483.2065,186.524,489.2997,190.554,488.2217,193.6215" style="stroke:#333333;stroke-width:2.0833333333333335;"/><text fill="#FFFFFF" font-family="&quot;Segoe Print&quot;" font-size="12.5" lengthAdjust="spacing" textLength="131.25" x="321.0613" y="196.0397">voir E.D.T Perso salle</text></g><g id="elem_voir Progression Cours"><polygon fill="#474747" points="245.8976,197.3524,243.7551,201.4054,235.5775,204.4892,226.1945,207.5616,218.4485,211.13,203.8342,213.1647,190.4831,215.3509,174.8128,216.7616,157.5476,217.4375,142.5534,218.1303,122.2164,217.0404,109.2388,216.9192,92.4545,215.2049,76.3051,212.8392,64.9893,210.7292,53.6197,207.7733,45.1135,204.6331,38.0716,201.0267,33.9698,197.3339,31.6584,193.3662,32.7346,189.5653,36.6396,185.9059,44.2939,182.7052,52.4891,179.3676,62.7358,176.3576,79.6029,174.826,89.9485,171.9686,108.2843,171.1531,122.2731,169.7456,141.9919,170.1078,157.5486,170.1303,171.5952,170.4902,189.4028,172.433,203.3108,174.2982,215.4399,176.5898,226.1471,179.3978,236.1414,182.8703,241.7488,186.1563,248.1357,190.3594,247.0058,193.5586" style="stroke:#333333;stroke-width:2.0833333333333335;"/><text fill="#FFFFFF" font-family="&quot;Segoe Print&quot;" font-size="12.5" lengthAdjust="spacing" textLength="143.75" x="68.7012" y="195.9843">voir Progression Cours</text></g><!--entity OLD_ETUDIANT--><g id="elem_OLD_ETUDIANT"><polygon fill="#474747" points="1660.5087,37.3873,1658.0657,40.7254,1655.1761,45.6147,1651.0434,48.9097,1646.7006,50.7115,1643.2379,50.8679,1638.7874,48.6145,1634.5881,47.1423,1631.4008,44.1533,1629.7289,40.7315,1628.7374,38.0069,1627.766,34.448,1626.1894,31.3856,1627.4009,28.3955,1628.4624,25.12,1632.4459,22.5295,1635.2484,19.1683,1638.7173,18.0522,1642.8411,17.091,1648.1294,17.6621,1651.0259,19.0281,1654.3935,19.6473,1658.4882,23.8424,1659.9155,28.2711,1660.5357,31.293,1659.8333,36.2725" style="stroke:#333333;stroke-width:1.5625;"/><path d="M1643.75,54.1667 L1643.75,54.1667 L1643.7833,54.2581 L1645.9761,53.1531 L1648.3639,52.5841 L1650.6882,51.8406 L1652.8038,50.5229 L1655.2083,50 L1655.2083,50 L1655.1934,49.9672 L1657.4183,50.8619 L1659.7182,51.9217 L1662.0703,53.0963 L1664.2426,53.8753 L1666.6667,55.2083 L1666.9,55.3144 L1667.4427,57.3793 L1668.6666,59.7538 L1669.9737,62.1661 L1670.7972,64.3586 L1671.875,66.6667 L1671.9382,66.6667 L1671.8454,67.5 L1672.0403,68.3333 L1672.0964,69.1667 L1672.4173,70 L1671.875,70.8333 L1671.875,70.8333 L1672.0947,71.053 L1670.4307,72.7224 L1668.625,74.25 L1667.0268,75.9851 L1665.4382,77.7299 L1663.5417,79.1667 L1663.5417,78.4989 L1655.625,79.7949 L1647.7083,78.8921 L1639.7917,79.6609 L1631.875,78.7083 L1623.9583,79.1667 L1623.9583,79.1667 L1623.9359,79.1442 L1622.5344,77.7428 L1620.609,75.8174 L1618.9928,74.2011 L1617.4025,72.6109 L1615.625,70.8333 L1616.0104,70.8333 L1615.6214,70 L1615.8909,69.1667 L1615.095,68.3333 L1615.8883,67.5 L1615.625,66.6667 L1615.625,66.6667 L1615.856,66.7717 L1616.854,64.4602 L1617.9667,62.2008 L1618.5464,59.6991 L1619.5168,57.3751 L1620.8333,55.2083 L1620.7143,54.9464 L1623.1137,54.1419 L1625.379,53.0422 L1627.8389,52.3705 L1629.9665,50.968 L1632.2917,50 L1632.2917,50 L1632.2374,49.8507 L1634.6194,50.9327 L1636.7695,51.3765 L1639.0845,52.2741 L1641.561,53.6157 L1643.75,54.1667 " fill="#474747" style="stroke:#333333;stroke-width:1.5625;"/><text fill="#FFFFFF" font-family="&quot;Segoe Print&quot;" font-size="12.5" lengthAdjust="spacing" textLength="92.7083" x="1597.3958" y="97.5403">OLD_ETUDIANT</text></g><!--link OLD_ETUDIANT to voir E.D.T ext. jour--><g id="link_OLD_ETUDIANT_voir E.D.T ext. jour"><path d="M1695.5208,61.9323 L1695.5242,62.2242 L1706.0594,61.48 L1716.6145,62.4469 L1727.1631,62.8566 L1737.6903,61.4339 L1748.2459,62.4398 L1758.7855,62.0785 L1769.3314,62.2613 L1779.8818,62.8224 L1790.417,62.0799 L1800.9824,63.9321 L1811.5187,63.2863 L1811.5064,62.411 L1822.5073,63.1658 L1833.512,64.1944 L1844.4943,63.6295 L1855.4898,63.9975 L1866.4803,64.0125 L1877.4768,64.4589 L1888.4658,64.3651 L1888.4711,64.6972 L1899.3107,65.3514 L1910.1444,65.6428 L1920.9765,65.8271 L1931.799,65.4104 L1942.6355,65.8735 L1953.4727,66.3778 L1964.273,64.574 L1975.1209,65.7485 L1975.1381,66.6907 L1985.5768,65.5273 L1996.0612,66.871 L2006.4985,65.6329 L2016.9726,66.4158 L2027.4565,67.7314 L2037.8999,66.8245 L2048.3671,67.229 L2058.8364,67.7437 L2069.2912,67.4641 L2069.3032,68.042 L2079.2403,67.6662 L2089.1979,68.2779 L2099.1223,67.2918 L2109.0963,68.6891 L2119.0532,69.2629 L2128.9994,69.3265 L2138.9535,69.768 L2148.871,68.4535 L2158.8153,68.4263 L2168.7835,69.5394 L2168.7628,68.6766 L2179.0436,69.7039 L2189.3012,69.7591 L2199.5926,71.2243 L2209.8262,70.2819 L2220.0827,70.2944 L2230.3639,71.334 L2240.5962,70.3374 L2250.8633,70.7888 L2261.1643,72.6569 L2271.4048,72.0021 L2271.4216,72.607 L2281.7889,73.3096 L2292.1039,72.1308 L2302.4844,73.3085 L2312.8506,73.9728 L2323.1653,72.785 L2333.5356,73.5956 L2343.8999,74.1913 L2354.2759,75.209 L2364.6063,74.5861 L2374.9622,74.8797 L2374.9831,75.5218 L2385.1673,74.443 L2395.3918,74.6036 L2405.6751,76.5748 L2415.8501,75.2125 L2426.1354,77.2462 L2436.3518,77.1586 L2446.5605,76.8318 L2456.7867,77.0447 L2467.0533,78.5046 L2477.2627,78.1998 L2477.2474,77.7843 L2487.2915,79.3882 L2497.232,78.1664 L2507.2903,80.1575 L2517.2822,80.3396 L2527.2562,80.0343 L2527.2699,80.3743 L2537.0303,80.491 L2546.8394,81.8249 L2556.6045,82.0592 L2566.3512,81.8337 L2576.1132,81.9899 L2576.1295,82.362 L2585.5945,82.2251 L2595.1352,83.816 L2604.5903,83.4527 L2614.0806,83.8933 L2623.5594,84.0698 L2623.5458,83.7885 L2632.7026,84.324 L2641.8757,85.1984 L2651.0258,85.5933 L2660.1675,85.8162 L2669.3207,86.2776 L2669.3127,86.1287 L2678.0758,86.6443 L2686.8247,86.8961 L2695.6123,87.8728 L2704.3808,88.4908 L2713.123,88.6167 L2713.1375,88.86 L2721.456,89.4327 L2729.7469,89.5431 L2738.0669,90.1414 L2746.3677,90.4167 L2754.6922,91.0906 L2754.701,91.2218 L2762.5122,91.727 L2770.3341,92.3906 L2778.1223,92.5517 L2785.9376,93.1181 L2793.7542,93.7026 L2793.7697,93.9074 L2801.0302,94.5153 L2808.2485,94.5675 L2815.5157,95.2653 L2822.7839,95.9745 L2830.0348,96.4563 L2830.0102,96.1746 L2836.694,97.1991 L2843.3352,97.7348 L2849.9658,98.1491 L2856.6205,98.8409 L2863.2598,99.3551 L2863.294,99.6907 L2869.2242,99.8204 L2875.2328,100.7191 L2881.2105,101.315 L2887.1816,101.8462 L2893.1553,102.4024 L2893.1632,102.4671 L2898.42,103.0944 L2903.6371,103.3952 L2908.9079,104.1377 L2914.1628,104.7497 L2919.447,105.6017 L2919.4511,105.6309 L2921.7945,105.9736 L2924.141,106.3389 L2926.4534,106.4629 L2928.8096,106.8969 L2931.1558,107.2594 L2931.1471,107.2044 L2933.3386,107.8625 L2935.4687,108.1332 L2937.5436,108.0556 L2939.7145,108.5836 L2941.8608,108.9564 L2941.8103,108.6939 L2945.5384,109.7902 L2949.2188,110.6384 L2952.8655,111.3121 L2956.4322,111.5692 L2960.1226,112.4699 L2960.1778,112.6775 L2962.8015,112.8728 L2965.6807,114.0299 L2968.3885,114.5416 L2971.2027,115.4539 L2973.9583,116.1458 L2973.9971,116.2501 L2976.5357,117.2816 L2978.8443,117.6953 L2981.5385,119.1449 L2983.9916,119.9469 L2986.464,120.8005 L2986.5324,120.9501 L2989.0733,122.2427 L2991.3956,123.0575 L2993.8936,124.2563 L2996.3663,125.3997 L2998.7905,126.4372 L2998.8334,126.5178 L3001.1956,127.7178 L3003.7556,129.2895 L3005.8734,130.0308 L3008.5344,131.7919 L3010.8165,132.8418 L3010.668,132.5941 L3013.0087,134.0189 L3015.4677,135.641 L3017.7857,137.028 L3019.9824,138.2128 L3022.4206,139.8001 L3022.5261,139.96 L3024.6604,141.3017 L3027.0301,142.9999 L3029.227,144.4365 L3031.1547,145.465 L3033.4811,147.0977 L3033.3741,146.9478 L3035.5255,148.5336 L3037.735,150.2008 L3039.8269,151.7033 L3041.8787,153.1495 L3043.8768,154.5206 L3043.7807,154.3947 L3045.9774,156.2215 L3047.8985,157.6873 L3049.6291,158.9034 L3051.4971,160.2996 L3053.4861,161.8543 L3053.3693,161.7098 L3055.1639,163.1831 L3057.0066,164.716 L3058.687,166.048 L3060.3257,167.3282 L3062.1875,168.8848 " fill="none" style="stroke:#333333;stroke-width:3.125;"/><polygon fill="#333333" points="3066.4063,172.4365,3066.4718,172.4685,3065.3769,170.5295,3064.6663,168.7782,3063.8306,166.9657,3062.5832,164.9523,3061.9057,163.2171,3061.8788,163.2148,3061.8605,164.3783,3061.9777,165.5537,3062.1892,166.7372,3062.0759,167.8925,3062.4174,169.0874,3062.4341,169.2789,3061.2244,168.9717,3060.0634,169.2237,3058.9083,169.5439,3057.7186,169.4672,3056.5472,169.5992,3056.5537,169.622,3058.5159,170.156,3060.5079,170.7937,3062.4856,171.3813,3064.4907,172.0644,3066.4063,172.4365" style="stroke:#333333;stroke-width:3.125;"/></g><!--link OLD_ETUDIANT to voir E.D.T ext. semaine--><g id="link_OLD_ETUDIANT_voir E.D.T ext. semaine"><path d="M1695.625,62.5802 L1695.632,62.872 L1706.5149,62.2673 L1717.4389,63.3733 L1728.3494,63.9222 L1739.216,62.6391 L1750.1409,63.7841 L1761.0329,63.5621 L1771.9381,63.8842 L1782.8523,64.5844 L1793.7583,64.9414 L1793.7322,63.9815 L1804.0777,65.9901 L1814.3314,64.6265 L1824.6462,65.5071 L1834.9685,66.6615 L1845.2474,66.2228 L1855.5517,66.7168 L1865.8464,66.8578 L1876.1529,67.4301 L1886.4536,67.7944 L1896.7652,68.5556 L1907.0669,68.9543 L1917.3657,69.2458 L1927.6385,68.5828 L1927.6492,68.9363 L1938.5318,69.5541 L1949.4157,70.2132 L1960.23,68.5649 L1971.1625,70.8358 L1981.9956,69.8099 L1992.9042,71.2904 L2003.7558,70.8771 L2003.7334,70.1899 L2013.7502,71.1078 L2023.7845,72.5582 L2033.7463,71.7869 L2043.7508,72.3265 L2053.7589,72.9762 L2063.76,73.4097 L2073.7385,73.1523 L2083.7363,73.4836 L2083.7504,73.8822 L2093.9771,73.0536 L2104.2884,74.6073 L2114.5705,75.338 L2124.8344,75.5586 L2135.1118,76.157 L2145.3268,75.0001 L2155.5876,75.1299 L2165.8888,76.3997 L2165.8551,75.5373 L2176.2148,76.7209 L2186.5365,76.9327 L2196.9132,78.554 L2207.196,77.7688 L2217.5161,77.938 L2227.8762,79.1338 L2238.1569,78.2944 L2248.5221,79.6228 L2248.4909,78.9025 L2258.739,80.9642 L2268.9041,81.1092 L2279.0999,81.9648 L2289.2143,80.94 L2299.4307,82.2704 L2309.6249,83.0877 L2319.7389,82.0538 L2329.9452,83.1503 L2329.9387,83.0173 L2339.7689,83.8037 L2349.6196,85.0117 L2359.3905,84.5804 L2369.2372,85.7066 L2378.9837,84.7753 L2388.7905,85.0827 L2398.6856,87.1995 L2408.4667,86.9795 L2408.4112,85.9853 L2419.0674,88.2751 L2429.6052,88.4456 L2440.1297,88.3773 L2450.6844,88.848 L2461.3085,90.5646 L2471.8111,90.1031 L2482.3955,91.1079 L2482.4127,91.3814 L2489.3223,91.2877 L2496.2989,92.2635 L2503.2378,92.6371 L2510.1736,92.9616 L2517.1092,93.2835 L2517.1107,93.3053 L2523.7184,94.069 L2530.3011,94.4667 L2536.8733,94.7113 L2543.4627,95.2069 L2550.0405,95.5329 L2550.036,95.4728 L2556.2529,96.3282 L2562.4209,96.5335 L2568.609,97.0063 L2574.7695,97.1103 L2580.9781,97.8558 L2580.9625,97.6688 L2586.745,98.5798 L2592.4876,99.0124 L2598.2159,99.2736 L2603.9516,99.6239 L2609.7105,100.2518 L2609.701,100.1509 L2614.944,100.4293 L2620.2547,101.4305 L2625.532,102.074 L2630.7859,102.4695 L2636.0263,102.7206 L2636.0606,103.0405 L2640.7571,103.1659 L2645.5058,103.7773 L2650.2199,104.067 L2654.9907,104.8844 L2659.7142,105.262 L2659.7284,105.3753 L2663.9157,106.0384 L2668.0404,106.2019 L2672.2156,106.7683 L2676.4186,107.5565 L2680.5628,107.8755 L2680.6019,108.1352 L2684.0869,108.1779 L2687.6685,108.8609 L2691.2517,109.555 L2694.7588,109.7441 L2698.3606,110.5609 L2698.391,110.7216 L2701.2899,111.2296 L2704.1661,111.6178 L2707.0942,112.2797 L2710.0519,113.0978 L2712.8962,113.3177 L2712.8603,113.1774 L2715.1448,114.0246 L2717.3538,114.5771 L2719.5468,115.0665 L2721.7621,115.6434 L2723.9583,116.1458 L2723.9757,116.1954 L2726.4524,116.7786 L2729.0759,117.7818 L2731.6561,118.6608 L2734.3258,119.796 L2736.9054,120.6737 L2736.9213,120.7112 L2739.5016,121.8299 L2741.9868,122.7242 L2744.5941,123.9068 L2747.1516,124.9716 L2749.7402,126.1101 L2749.8575,126.3501 L2752.346,127.5183 L2754.6798,128.3696 L2757.2827,129.772 L2759.6994,130.793 L2762.3358,132.2638 L2762.3998,132.381 L2764.9167,133.847 L2767.3484,135.1569 L2769.5767,136.0946 L2772.2222,137.796 L2774.5651,138.9435 L2774.3887,138.6483 L2776.9599,140.4258 L2779.1885,141.6302 L2781.6298,143.1904 L2784.0111,144.6503 L2786.3013,145.9577 L2786.4196,146.1414 L2788.344,147.1089 L2790.8669,149.0058 L2793.0156,150.3215 L2795.2832,151.822 L2797.4173,153.1152 L2797.6131,153.4007 L2799.4925,154.5391 L2801.6108,156.0259 L2803.6946,157.4623 L2805.7641,158.878 L2807.7863,160.2246 L2807.7861,160.2243 L2809.8782,161.8651 L2811.4188,162.7439 L2813.6367,164.5586 L2815.2129,165.4865 L2817.2813,167.0946 " fill="none" style="stroke:#333333;stroke-width:3.125;"/><polygon fill="#333333" points="2821.6458,170.3666,2821.7096,170.4021,2820.5202,168.5048,2819.7043,166.816,2818.7668,165.0593,2817.4293,163.0793,2816.6455,161.4084,2816.6188,161.4046,2816.6656,162.5541,2816.8471,163.7229,2817.1222,164.905,2817.0747,166.0411,2817.4791,167.2417,2817.5063,167.432,2816.2814,167.1918,2815.136,167.5071,2814.0003,167.8903,2812.8082,167.879,2811.6458,168.0752,2811.651,168.0983,2813.6433,168.5227,2815.6596,169.0522,2817.6643,169.531,2819.6912,170.1065,2821.6458,170.3666" style="stroke:#333333;stroke-width:3.125;"/></g><!--link OLD_ETUDIANT to voir E.D.T ext. mois--><g id="link_OLD_ETUDIANT_voir E.D.T ext. mois"><path d="M1695.4479,61.3281 L1695.4493,61.62 L1706.0384,60.8015 L1716.6354,61.6941 L1727.2299,62.0295 L1737.8159,60.5324 L1748.4131,61.4641 L1759.004,61.0284 L1769.5998,61.6695 L1769.598,61.492 L1778.8252,61.7337 L1788.048,61.5409 L1797.2797,62.213 L1806.4997,61.7606 L1815.7285,62.1481 L1815.7243,61.8735 L1825.9104,62.9008 L1836.0725,62.3345 L1846.2486,62.7012 L1856.4194,62.7148 L1866.5929,62.9119 L1866.598,63.1598 L1877.5249,63.4658 L1888.4598,64.1688 L1899.3874,64.5092 L1910.3128,64.7423 L1921.2188,64.0209 L1921.2282,64.3744 L1930.8046,64.9169 L1940.3822,65.5006 L1949.8989,63.7766 L1959.5189,65.9723 L1969.052,64.871 L1978.6317,65.535 L1978.6565,66.276 L1988.4796,65.1777 L1998.3703,66.0996 L2008.2788,67.554 L2018.113,66.7867 L2027.9911,67.3304 L2037.8571,67.5141 L2037.8767,67.984 L2047.8918,68.509 L2057.878,68.3434 L2067.9054,69.1647 L2077.8663,68.3892 L2087.9264,69.9955 L2097.9206,70.0182 L2097.933,70.2717 L2103.9389,70.5173 L2109.951,70.8888 L2115.9346,70.6755 L2121.939,70.8908 L2127.9621,71.4859 L2127.9465,71.1986 L2133.9377,71.783 L2139.9114,72.0436 L2145.9105,72.7738 L2151.8662,72.7023 L2157.8477,73.1073 L2157.8382,72.9488 L2163.7756,73.5693 L2169.6723,73.5122 L2175.598,73.937 L2181.5521,74.8333 L2187.4556,74.89 L2187.4691,75.0912 L2193.32,75.6195 L2199.1291,75.5219 L2204.9905,76.2082 L2210.8406,76.7238 L2216.664,76.8413 L2216.6479,76.6232 L2222.3982,77.2226 L2228.1432,77.7505 L2233.8986,78.4188 L2239.6136,78.5415 L2245.3512,78.9689 L2245.3687,79.1823 L2250.9389,79.1757 L2256.543,79.5809 L2262.1967,80.588 L2267.7591,80.4871 L2273.3951,81.2802 L2273.4167,81.5148 L2278.8597,81.876 L2284.2954,82.1577 L2289.7476,82.6186 L2295.2378,83.4937 L2300.6742,83.7827 L2300.6601,83.6448 L2305.9806,84.5955 L2311.2051,84.6086 L2316.5387,85.6878 L2321.8109,86.1667 L2327.0666,86.4839 L2327.0795,86.5966 L2332.1458,87.0871 L2337.2584,87.981 L2342.3292,88.5105 L2347.3825,88.8876 L2352.4504,89.3913 L2352.4662,89.5144 L2357.2934,89.9557 L2362.1941,90.9687 L2367.0116,91.335 L2371.8634,91.9674 L2376.7039,92.5123 L2376.6634,92.2336 L2381.2772,92.9951 L2385.9397,94.0924 L2390.5333,94.7146 L2395.1021,95.1665 L2399.7052,95.8546 L2399.6809,95.7074 L2404.0142,96.4688 L2408.3044,96.9695 L2412.7129,98.1866 L2417.0629,99.0491 L2421.3326,99.4255 L2421.3779,99.665 L2425.4187,100.5031 L2429.3735,100.8862 L2433.4191,101.7494 L2437.4046,102.2949 L2441.4643,103.2326 L2441.4924,103.3611 L2445.1915,104.1544 L2448.9246,105.1027 L2452.55,105.5592 L2456.2622,106.4124 L2459.9784,107.2834 L2460.0294,107.4822 L2463.3986,108.3982 L2466.6293,108.7743 L2470.0209,109.7776 L2473.4153,110.7918 L2476.7531,111.5853 L2476.6704,111.3148 L2479.7837,112.6538 L2482.7535,113.5237 L2485.6876,114.277 L2488.7032,115.2967 L2491.6667,116.1458 L2491.7866,116.4611 L2494.1105,116.9599 L2496.7092,118.181 L2499.1997,119.1178 L2501.6671,119.9937 L2504.1433,120.893 L2504.1707,120.9523 L2506.6288,122.077 L2508.9492,122.9031 L2511.4559,124.1332 L2513.9075,125.2438 L2516.4604,126.5741 L2516.4743,126.6002 L2518.8867,127.8919 L2521.3097,129.2038 L2523.6182,130.3007 L2526.0739,131.6738 L2528.4956,132.9832 L2528.4671,132.9354 L2530.9585,134.599 L2533.249,135.9255 L2535.3589,136.9491 L2537.7829,138.4995 L2540.1263,139.9148 L2539.9802,139.6911 L2542.4201,141.4763 L2544.7218,143.0501 L2546.9264,144.4749 L2548.8992,145.5446 L2551.2302,147.1632 L2551.3538,147.3388 L2553.1231,148.3538 L2555.4653,150.1827 L2557.4231,151.4654 L2559.6196,153.0872 L2561.6847,154.5225 L2561.7515,154.6115 L2563.7525,156.1502 L2565.3578,157.1617 L2567.6265,159.0573 L2569.4805,160.4002 L2571.3676,161.7871 L2571.4697,161.9161 L2573.3403,163.4513 L2574.8846,164.5748 L2576.6912,166.0293 L2578.4599,167.436 L2580.1563,168.7514 " fill="none" style="stroke:#333333;stroke-width:3.125;"/><polygon fill="#333333" points="2584.4375,172.2717,2584.5027,172.3044,2583.3887,170.3732,2582.6571,168.6339,2581.801,166.8321,2580.5354,164.8248,2579.8366,163.102,2579.8098,163.0993,2579.8044,164.2604,2579.9344,165.4347,2580.1585,166.6183,2580.0583,167.77,2580.4124,168.9663,2580.4312,169.1576,2579.2182,168.8637,2578.06,169.1283,2576.9085,169.461,2575.718,169.3973,2574.5481,169.5421,2574.5544,169.5649,2576.523,170.0773,2578.5203,170.6937,2580.5038,171.2599,2582.5137,171.9218,2584.4375,172.2717" style="stroke:#333333;stroke-width:3.125;"/></g><!--link OLD_ETUDIANT to voir E.D.T ext. Semestre--><g id="link_OLD_ETUDIANT_voir E.D.T ext. Semestre"><path d="M1695.4167,63.3417 L1695.4293,63.6333 L1706.3503,63.2431 L1717.3455,64.5626 L1728.3166,65.3253 L1739.2081,64.2572 L1750.2097,65.7235 L1750.2042,65.6157 L1759.867,65.6234 L1769.5573,66.1745 L1779.2668,67.1034 L1788.9103,66.7304 L1798.6852,68.9489 L1808.2892,67.7981 L1818.0208,69.1639 L1818.0156,69.0725 L1825.4941,69.7916 L1832.9421,69.9803 L1840.408,70.4795 L1847.8671,70.8612 L1855.3297,71.304 L1855.3349,71.3865 L1863.0945,71.901 L1870.8624,72.5476 L1878.6228,73.0735 L1886.3809,73.5637 L1894.1191,73.7363 L1894.1272,73.8539 L1902.0695,74.4971 L1910.0127,75.1541 L1917.9031,75.0434 L1925.8833,76.2366 L1933.7974,76.4699 L1933.787,76.3331 L1941.8114,77.3252 L1949.7704,77.4591 L1957.7806,78.2648 L1965.8043,79.2476 L1973.7734,79.5141 L1973.7715,79.4916 L1981.714,80.2354 L1989.6596,81.0158 L1997.5991,81.7244 L2005.5191,82.2033 L2013.4558,82.8779 L2013.4684,83.0102 L2021.1901,83.3526 L2028.9871,84.486 L2036.7582,85.3461 L2044.5131,86.0369 L2052.253,86.5705 L2052.2835,86.8527 L2059.6932,87.1543 L2067.1489,87.8826 L2074.6146,88.7029 L2082.1067,89.768 L2089.5738,90.6012 L2089.563,90.5109 L2093.1957,91.3434 L2096.733,91.3789 L2100.3081,91.7305 L2103.9239,92.4221 L2107.4958,92.7462 L2107.4563,92.44 L2110.9313,92.9544 L2114.4666,93.9373 L2117.9202,94.286 L2121.4041,94.8697 L2124.8268,94.9791 L2124.8063,94.8315 L2128.1805,95.5898 L2131.531,96.1786 L2134.7964,96.1557 L2138.1537,96.7927 L2141.4931,97.3011 L2141.5018,97.3587 L2144.7238,98.0818 L2147.8638,98.264 L2151.0817,98.9601 L2154.1967,98.9774 L2157.4206,99.7133 L2157.3694,99.404 L2160.4817,100.444 L2163.4124,100.3873 L2166.5281,101.4479 L2169.5282,101.8106 L2172.5356,102.2169 L2172.5133,102.0949 L2175.3518,102.575 L2178.265,103.4643 L2181.0477,103.6383 L2183.9674,104.5634 L2186.7639,104.813 L2186.7131,104.5623 L2189.4743,105.6312 L2192.1156,106.1087 L2194.7472,106.5381 L2197.3826,106.9863 L2200.0318,107.5029 L2200.1065,107.8309 L2202.5415,108.3368 L2204.9426,108.6931 L2207.3994,109.2947 L2209.8052,109.6718 L2212.2653,110.2875 L2212.3484,110.6086 L2214.5083,110.933 L2216.7354,111.5171 L2218.8698,111.7432 L2221.1184,112.4104 L2223.3904,113.1681 L2223.4609,113.4035 L2225.4361,113.9543 L2227.3619,114.3402 L2229.3134,114.8119 L2231.3157,115.4532 L2233.3333,116.1458 L2233.2257,115.847 L2236.0089,117.2666 L2238.6703,118.3483 L2241.2473,119.1956 L2243.8843,120.2091 L2246.3857,120.8466 L2246.361,120.7883 L2248.9983,121.9878 L2251.5091,122.8895 L2254.2275,124.2797 L2256.8175,125.3678 L2259.3696,126.3667 L2259.4807,126.5971 L2261.8803,127.5036 L2264.4564,128.776 L2267.1295,130.2497 L2269.7112,131.534 L2272.1541,132.5301 L2272.0426,132.3206 L2274.6027,133.777 L2277.1681,135.2433 L2279.4936,136.2588 L2282.1942,137.9789 L2284.6081,139.1607 L2284.6678,139.2641 L2286.9833,140.5046 L2289.438,141.9864 L2291.9723,143.6059 L2294.1297,144.5726 L2296.6006,146.0824 L2296.6772,146.2065 L2298.9501,147.6023 L2301.1889,148.9427 L2303.475,150.36 L2305.7484,151.7566 L2308.0008,153.1193 L2307.8428,152.8773 L2310.0347,154.3591 L2312.1547,155.7307 L2314.423,157.3295 L2316.5646,158.7341 L2318.6776,160.0952 L2318.72,160.1569 L2320.5659,161.3319 L2322.5889,162.7649 L2324.5396,164.0926 L2326.6866,165.7065 L2328.5,166.8341 " fill="none" style="stroke:#333333;stroke-width:3.125;"/><polygon fill="#333333" points="2333.0313,170.0465,2333.094,170.0838,2331.8582,168.2097,2330.99,166.5545,2330.0021,164.828,2328.6206,162.8671,2327.784,161.2307,2327.7574,161.2261,2327.8371,162.3672,2328.0508,163.5313,2328.3578,164.7114,2328.3436,165.8364,2328.7793,167.0386,2328.8117,167.2281,2327.5807,167.0219,2326.4445,167.369,2325.3199,167.7836,2324.1279,167.8054,2322.9714,168.0339,2322.976,168.0571,2324.9812,168.4255,2327.0075,168.8997,2329.0236,169.3228,2331.0592,169.8434,2333.0313,170.0465" style="stroke:#333333;stroke-width:3.125;"/></g><!--link OLD_ETUDIANT to voir E.D.T ext. Annee--><g id="link_OLD_ETUDIANT_voir E.D.T ext. Annee"><path d="M1695.5625,62.9312 L1695.5683,63.0284 L1701.2955,63.0813 L1707.0567,63.7037 L1712.8067,64.1406 L1718.5206,63.9677 L1724.2846,64.6389 L1724.2819,64.6031 L1727.4844,64.6831 L1730.7004,64.9441 L1733.9258,65.3307 L1737.1188,65.2841 L1740.3572,65.8444 L1740.3793,66.0997 L1743.7421,65.8489 L1747.1695,66.3437 L1750.6048,66.9294 L1753.9942,66.9859 L1757.4077,67.3207 L1757.4108,67.3521 L1760.9875,67.6609 L1764.5783,68.1128 L1768.1623,68.4957 L1771.7593,69.0103 L1775.3137,69.0954 L1775.3485,69.4041 L1779.0768,69.8279 L1782.7826,70.0527 L1786.5213,70.5689 L1790.2615,71.0988 L1793.9529,71.1958 L1793.9107,70.8646 L1797.8427,71.9981 L1801.6356,72.041 L1805.5342,72.9131 L1809.324,72.9313 L1813.2029,73.6493 L1813.1984,73.6179 L1817.1994,74.556 L1821.0951,74.7607 L1825.053,75.3981 L1829.016,76.0718 L1832.9414,76.4835 L1832.9721,76.6737 L1836.962,77.1301 L1841.0044,77.9116 L1844.9619,78.1671 L1849.046,79.2071 L1853.046,79.7256 L1853.0911,79.9753 L1857.1522,80.6636 L1861.2357,81.4758 L1865.2151,81.712 L1869.2709,82.3704 L1873.3942,83.403 L1873.3372,83.1211 L1877.4828,84.2044 L1881.564,84.97 L1885.7386,86.1964 L1889.7539,86.636 L1893.8639,87.5433 L1893.8288,87.3884 L1897.9809,88.5725 L1901.9832,89.0944 L1906.092,90.0872 L1910.3051,91.5407 L1914.3325,92.1738 L1914.382,92.3693 L1918.485,93.533 L1922.4341,94.0886 L1926.5759,95.4059 L1930.6758,96.5572 L1934.6778,97.3219 L1934.6198,97.111 L1936.6837,97.8344 L1938.7286,98.4888 L1940.8108,99.2788 L1942.7478,99.5414 L1944.766,100.0986 L1944.8259,100.3042 L1946.6966,100.4357 L1948.6829,100.9641 L1950.838,102.0722 L1952.6823,102.113 L1954.7774,103.015 L1954.8487,103.2395 L1958.7527,104.3592 L1962.6325,105.4029 L1966.5667,106.6182 L1970.6269,108.2298 L1974.5089,109.2805 L1974.4623,109.15 L1978.4492,110.9116 L1982.1194,111.7856 L1986.1496,113.6689 L1989.9771,114.9839 L1993.75,116.1458 L1993.7933,116.2506 L1996.2198,117.1838 L1998.8015,118.4923 L2001.2429,119.4618 L2003.6258,120.2895 L2006.0573,121.2349 L2006.1107,121.3469 L2008.4771,122.3477 L2011.0917,123.8688 L2013.4256,124.8014 L2015.8749,125.9761 L2018.2863,127.0712 L2018.1538,126.8227 L2020.6032,128.1879 L2023.2122,129.8525 L2025.5953,131.0935 L2027.8975,132.1826 L2030.312,133.4824 L2030.2369,133.3535 L2032.6004,134.7575 L2034.8309,135.9333 L2037.4269,137.7363 L2039.842,139.229 L2042.0091,140.2958 L2042.1385,140.5023 L2044.4286,141.977 L2046.4729,143.0593 L2048.7767,144.5558 L2050.9087,145.7781 L2053.2527,147.3388 L2053.3255,147.4482 L2055.4489,148.8539 L2057.6603,150.3916 L2059.5926,151.5103 L2061.75,152.967 L2063.9175,154.4388 L2064.0353,154.6069 L2066.0605,156.0507 L2067.7656,157.0382 L2069.8425,158.5559 L2071.9259,160.0829 L2073.8784,161.4232 L2073.7112,161.1951 L2075.8016,162.8944 L2077.6019,164.198 L2079.33,165.4033 L2081.223,166.8333 L2083.0104,168.1195 " fill="none" style="stroke:#333333;stroke-width:3.125;"/><polygon fill="#333333" points="2087.2083,171.2926,2087.2723,171.3278,2086.0928,169.4257,2085.2882,167.73,2084.3615,165.967,2083.0334,163.9832,2082.261,162.3051,2082.2342,162.3014,2082.2741,163.4526,2082.4487,164.6223,2082.717,165.8048,2082.6624,166.943,2083.0601,168.1432,2083.0861,168.3337,2081.8628,168.0862,2080.7155,168.3948,2079.5775,168.7713,2078.3855,168.753,2077.2219,168.9423,2077.2274,168.9654,2079.2167,169.4016,2081.2307,169.9428,2083.2328,170.4333,2085.2576,171.0205,2087.2083,171.2926" style="stroke:#333333;stroke-width:3.125;"/></g><!--link OLD_ETUDIANT to voir E.D.T ext. salle--><g id="link_OLD_ETUDIANT_voir E.D.T ext. salle"><path d="M1695.4583,83.1979 L1695.4986,83.2865 L1698.6559,84.5124 L1702.0491,86.2576 L1705.3655,87.8336 L1708.4292,88.8536 L1711.8428,90.6433 L1711.8273,90.6108 L1715.165,92.0826 L1718.5806,93.7183 L1722.0501,95.4678 L1725.3334,96.8248 L1728.8776,98.7316 L1728.9924,98.9608 L1732.164,100.1824 L1735.6708,102.0731 L1739.2185,104.0455 L1742.5283,105.5429 L1745.9632,107.2901 L1745.9781,107.3179 L1749.2636,109.0482 L1752.6169,110.9052 L1755.9376,112.7011 L1759.3207,114.6137 L1762.5,116.1458 L1762.6541,116.4156 L1764.8625,117.6798 L1766.9715,118.7701 L1769.226,120.115 L1771.4873,121.4718 L1773.5326,122.4505 L1773.3613,122.1639 L1775.9177,124.0488 L1777.9103,124.99 L1780.3316,126.6487 L1782.3114,127.5684 L1784.653,129.0938 L1784.6363,129.0669 L1787.0495,130.7585 L1789.0725,131.8203 L1791.3257,133.2538 L1793.5983,134.7184 L1795.7314,135.958 L1795.8352,136.1204 L1797.9118,137.3499 L1800.1657,138.8569 L1802.1327,139.915 L1804.5276,141.6427 L1806.638,142.9252 L1806.7782,143.1367 L1810.9073,145.8512 L1815.106,148.6707 L1818.9813,151.0021 L1823.0936,153.6913 L1827.416,156.6975 L1827.2528,156.4606 L1831.1069,159.2292 L1834.7771,161.7309 L1838.7142,164.6197 L1842.1956,166.8475 L1845.9479,169.4682 " fill="none" style="stroke:#333333;stroke-width:3.125;"/><polygon fill="#333333" points="1850.375,172.5844,1850.4377,172.6218,1849.2,170.7487,1848.3297,169.0949,1847.3397,167.3697,1845.9563,165.4097,1845.1176,163.7747,1845.091,163.7701,1845.172,164.9108,1845.3871,166.0747,1845.6954,167.2547,1845.6826,168.3792,1846.1195,169.5814,1846.1522,169.7708,1844.921,169.5661,1843.7852,169.9145,1842.661,170.3304,1841.4691,170.3536,1840.3128,170.5834,1840.3174,170.6066,1842.3231,170.9727,1844.3498,171.4446,1846.3663,171.8654,1848.4022,172.3836,1850.375,172.5844" style="stroke:#333333;stroke-width:3.125;"/></g><!--link OLD_ETUDIANT to voir E.D.T Perso jour--><g id="link_OLD_ETUDIANT_voir E.D.T Perso jour"><path d="M1643.75,105.8938 L1644.0419,105.8938 L1643.1746,115.8333 L1644.0185,125.7728 L1644.3051,135.7123 L1642.7592,145.6519 L1643.6421,155.5914 L1643.75,165.5309 " fill="none" style="stroke:#333333;stroke-width:3.125;"/><polygon fill="#333333" points="1643.75,171.1453,1643.8167,171.175,1644.4519,169.2119,1645.478,167.4226,1646.3768,165.5767,1646.857,163.5447,1647.9167,161.7703,1647.8976,161.7512,1646.9786,162.4989,1646.1558,163.3428,1645.3999,164.2536,1644.4136,164.9339,1643.75,165.937,1643.8859,166.0729,1642.7619,164.9489,1642.0348,164.2218,1641.3561,163.543,1640.3956,162.5826,1639.5833,161.7703,1639.605,161.7799,1640.4065,163.6408,1641.3066,165.5455,1642.1592,167.429,1643.1025,169.3529,1643.75,171.1453" style="stroke:#333333;stroke-width:3.125;"/></g><!--link OLD_ETUDIANT to voir E.D.T Perso semaine--><g id="link_OLD_ETUDIANT_voir E.D.T Perso semaine"><path d="M1592.0625,83.9063 L1592.1029,83.9948 L1588.7208,85.2218 L1585.5757,86.9676 L1582.3533,88.5445 L1578.8772,89.5657 L1575.7524,91.3561 L1575.7371,91.3236 L1572.2687,92.7752 L1568.8775,94.3911 L1565.5399,96.121 L1562.0175,97.4577 L1558.7539,99.3452 L1558.8661,99.5756 L1555.2042,100.7487 L1551.8699,102.5947 L1548.5755,104.5227 L1545.0486,105.9731 L1541.644,107.6747 L1541.6584,107.7028 L1538.3085,109.3557 L1535.0239,111.1368 L1531.7078,112.856 L1528.4518,114.6933 L1525,116.1458 L1525.1457,116.4202 L1522.8432,117.6477 L1520.4466,118.6982 L1518.1877,120.0077 L1515.9352,121.3294 L1513.4784,122.2664 L1513.3182,121.9735 L1511.2956,123.8179 L1508.7456,124.6976 L1506.5966,126.3107 L1504.0347,127.1686 L1501.8112,128.6455 L1501.7956,128.6179 L1497.3284,131.5761 L1492.4964,133.8893 L1487.8797,136.5832 L1483.2811,139.3089 L1478.5521,141.8042 L1478.6495,141.9705 L1474.09,144.4164 L1469.6969,147.1464 L1465.0345,149.4168 L1460.7738,152.3728 L1456.2461,154.8729 L1456.3769,155.0904 L1452.2863,157.4951 L1448.2606,160.0078 L1443.9332,162.0188 L1439.8269,164.3976 L1435.9167,167.1022 " fill="none" style="stroke:#333333;stroke-width:3.125;"/><polygon fill="#333333" points="1431.2813,169.929,1431.2906,170.0013,1433.2976,169.5226,1435.3595,169.4681,1437.4036,169.2755,1439.3887,168.6285,1441.4554,168.6104,1441.449,168.5842,1440.2752,168.1884,1439.1335,167.9247,1438.0142,167.7529,1436.8179,167.2644,1435.7294,167.2195,1435.9162,167.2649,1435.7949,166.0226,1436.219,164.9129,1436.7097,163.8193,1436.8132,162.6317,1437.1203,161.4935,1437.1398,161.507,1435.9434,163.1743,1434.8356,164.9029,1433.6851,166.602,1432.6163,168.3576,1431.2813,169.929" style="stroke:#333333;stroke-width:3.125;"/></g><!--link OLD_ETUDIANT to voir E.D.T Perso mois--><g id="link_OLD_ETUDIANT_voir E.D.T Perso mois"><path d="M1592.0938,62.1135 L1592.0974,62.2108 L1589.1391,62.0328 L1586.2023,62.4249 L1583.2585,62.6313 L1580.2917,62.2273 L1577.3567,62.6683 L1577.3549,62.6324 L1574.1159,62.6256 L1570.8855,62.7999 L1567.6611,63.1002 L1564.416,62.9664 L1561.1999,63.4406 L1561.215,63.6964 L1557.6956,63.354 L1554.2202,63.7587 L1550.7501,64.2544 L1547.2489,64.2199 L1543.764,64.4643 L1543.7662,64.4958 L1540.048,64.7114 L1536.3399,65.0704 L1532.627,65.3603 L1528.9233,65.7822 L1525.1893,65.7735 L1525.2151,66.0831 L1521.3008,66.4127 L1517.3698,66.5425 L1513.4633,66.9647 L1509.5578,67.4005 L1505.6162,67.4023 L1505.584,67.07 L1501.5604,68.1115 L1497.4306,68.0586 L1493.3815,68.8377 L1489.2493,68.7601 L1485.1852,69.3847 L1485.1817,69.3532 L1480.9938,70.1999 L1476.7233,70.3103 L1472.5016,70.8552 L1468.2839,71.4365 L1464.0368,71.7548 L1464.0613,71.9459 L1459.6914,72.3113 L1455.3635,73.0033 L1450.9676,73.1669 L1446.6731,74.1187 L1442.3112,74.5465 L1442.348,74.7976 L1437.9086,75.3996 L1433.4875,76.1263 L1428.9815,76.2737 L1424.5377,76.8457 L1420.149,77.7939 L1420.1018,77.5102 L1415.6528,78.5145 L1411.1507,79.1991 L1406.7257,80.3475 L1402.169,80.7039 L1397.6906,81.5312 L1397.6612,81.3751 L1393.1873,82.4872 L1388.5877,82.9322 L1384.0775,83.8516 L1379.6548,85.2352 L1375.0764,85.7922 L1375.1184,85.9895 L1370.6213,87.0885 L1365.9935,87.574 L1361.5294,88.828 L1357.0296,89.9146 L1352.4468,90.6111 L1352.3971,90.3981 L1350.1814,91.0937 L1347.9494,91.7196 L1345.7493,92.4825 L1343.425,92.7126 L1341.1701,93.2403 L1341.2216,93.4482 L1338.8629,93.5478 L1336.6036,94.0486 L1334.4895,95.1355 L1332.108,95.1433 L1329.9423,96.0218 L1330.0022,96.2497 L1327.7343,96.7019 L1325.4461,97.0771 L1323.2037,97.6262 L1321.0671,98.5776 L1318.7808,98.9598 L1318.7434,98.8263 L1316.6391,99.8434 L1314.2808,99.9528 L1312.2113,101.0943 L1309.9791,101.6547 L1307.7032,102.0585 L1307.7356,102.1672 L1305.5142,102.7322 L1303.4087,103.6864 L1301.1985,104.289 L1298.9447,104.7446 L1296.7272,105.3222 L1296.7646,105.4406 L1294.5376,105.9513 L1292.4843,107.0116 L1290.2345,107.4503 L1288.0656,108.1447 L1285.8701,108.7552 L1285.7803,108.4882 L1283.6662,109.2986 L1281.6603,110.4306 L1279.5013,111.1076 L1277.2874,111.6215 L1275.1497,112.3616 L1275.0994,112.2212 L1273.0022,113.023 L1270.816,113.5762 L1268.8746,114.8129 L1266.812,115.7113 L1264.5833,116.1458 L1264.6749,116.3717 L1262.2039,117.4571 L1259.559,118.1134 L1257.0976,119.2226 L1254.5147,120.032 L1252.0818,121.2115 L1252.1378,121.3305 L1249.6466,122.4827 L1247.2231,123.7785 L1244.5852,124.6187 L1242.1202,125.8264 L1239.6629,127.0506 L1239.7587,127.2322 L1237.3439,128.5698 L1234.6692,129.4145 L1232.2964,130.8319 L1229.929,132.2593 L1227.4552,133.4851 L1227.3138,133.2401 L1225.1634,134.9971 L1222.7677,136.3292 L1220.3111,137.5558 L1217.9938,139.0235 L1215.5872,140.3369 L1215.7654,140.6233 L1213.2308,141.6321 L1211.1044,143.2971 L1208.8173,144.7038 L1206.4958,146.0552 L1204.1875,147.4279 L1204.2235,147.4823 L1202.0559,148.9022 L1199.7068,150.0479 L1197.6033,151.5645 L1195.4272,152.9715 L1193.3846,154.5801 L1193.4015,154.6044 L1191.3924,156.0207 L1189.3964,157.4557 L1187.2609,158.6909 L1185.3046,160.1827 L1183.307,161.6154 L1183.2742,161.5705 L1181.6199,163.1791 L1179.7341,164.471 L1177.6402,165.4781 L1175.9082,166.9804 L1174.0833,168.3557 " fill="none" style="stroke:#333333;stroke-width:3.125;"/><polygon fill="#333333" points="1169.8438,171.5466,1169.8603,171.6176,1171.8098,170.942,1173.8561,170.6831,1175.8709,170.2884,1177.782,169.4475,1179.8367,169.2244,1179.833,169.1976,1178.649,168.9146,1177.4839,168.7663,1176.3319,168.7116,1175.1348,168.3342,1174.0009,168.4088,1174.1912,168.4355,1173.9472,167.2114,1174.259,166.065,1174.6387,164.9281,1174.6238,163.736,1174.8164,162.573,1174.8371,162.5845,1173.8121,164.3623,1172.8815,166.1925,1171.9054,167.9974,1171.0162,169.8504,1169.8438,171.5466" style="stroke:#333333;stroke-width:3.125;"/></g><!--link OLD_ETUDIANT to voir E.D.T Perso Semestre--><g id="link_OLD_ETUDIANT_voir E.D.T Perso Semestre"><path d="M1591.7708,63.1625 L1591.7824,63.4542 L1582.2044,62.9648 L1572.694,64.1854 L1563.1616,64.8491 L1553.5568,63.6817 L1544.048,64.9413 L1534.5085,65.4264 L1534.481,64.8347 L1524.2904,65.3696 L1514.1174,66.2824 L1503.8837,65.893 L1493.7709,68.0956 L1483.5009,66.9283 L1473.3355,68.0037 L1463.1549,68.7533 L1463.1655,68.953 L1455.2774,69.1318 L1447.4057,69.6211 L1439.5278,69.9929 L1431.6575,70.5083 L1423.7776,70.8438 L1423.7841,70.9544 L1415.5935,71.5926 L1407.3958,72.1102 L1399.1961,72.5921 L1390.9847,72.8739 L1382.7779,73.2343 L1382.7917,73.4485 L1374.4011,74.0992 L1365.961,73.9819 L1357.6049,75.1689 L1349.1782,75.2588 L1340.7893,75.9362 L1340.8069,76.1827 L1332.3042,76.3125 L1323.8495,77.1144 L1315.4074,78.0934 L1306.9125,78.3334 L1298.4453,78.9608 L1298.4492,79.0094 L1290.0446,79.7888 L1281.6343,80.4964 L1273.2056,80.9743 L1264.8032,81.7804 L1256.3794,82.3196 L1256.3556,82.0556 L1248.1603,83.1916 L1239.9404,84.0541 L1231.7052,84.7472 L1223.4813,85.5657 L1215.225,86.0239 L1215.2022,85.8015 L1207.2724,86.5358 L1199.3519,87.3623 L1191.4566,88.4336 L1183.5283,89.1825 L1175.6157,90.0853 L1175.6514,90.3987 L1171.8011,90.4385 L1167.9868,90.7947 L1164.2113,91.4911 L1160.3589,91.513 L1156.5884,92.2534 L1156.5591,92.0148 L1152.9443,93.0039 L1149.2516,93.3582 L1145.5878,93.9478 L1141.8474,93.9148 L1138.1849,94.515 L1138.2044,94.6615 L1134.6809,95.2573 L1131.0758,95.2408 L1127.5587,95.8849 L1124.0322,96.4581 L1120.4844,96.8716 L1120.5277,97.1702 L1117.1005,97.3602 L1113.7478,98.0647 L1110.2966,98.0896 L1106.9048,98.5236 L1103.5661,99.3245 L1103.6027,99.5548 L1100.3027,99.5068 L1097.1803,100.5775 L1093.947,100.9494 L1090.7011,101.2426 L1087.5092,101.8752 L1087.4809,101.7139 L1084.5226,102.6144 L1081.4387,102.7987 L1078.4867,103.7351 L1075.3719,103.7432 L1072.3928,104.5252 L1072.4476,104.8058 L1069.6164,105.2954 L1066.7759,105.7368 L1063.939,106.197 L1061.18,107.0559 L1058.2962,107.2758 L1058.3571,107.5533 L1055.7135,107.9229 L1053.1237,108.5382 L1050.4847,108.9285 L1047.9692,109.882 L1045.2985,110.1285 L1045.3159,110.1981 L1042.954,110.7973 L1040.5023,111.0378 L1038.1612,111.7202 L1035.9025,112.7318 L1033.4789,113.0847 L1033.5343,113.2758 L1031.361,113.6778 L1029.2125,114.1659 L1027.1134,114.824 L1024.9407,115.2285 L1022.9167,116.1458 L1022.9799,116.3271 L1020.3807,117.3925 L1017.6996,118.2227 L1015.0767,119.2197 L1012.3013,119.7795 L1009.6735,120.7626 L1009.6889,120.7999 L1006.9668,121.6812 L1004.4466,123.0533 L1001.8016,124.122 L999.2169,125.3374 L996.4812,126.1854 L996.4363,126.089 L993.853,127.3408 L991.3641,128.7951 L988.7864,130.0589 L985.9734,130.8174 L983.4717,132.2443 L983.4307,132.1645 L980.9643,133.6108 L978.2645,134.6028 L975.9296,136.3048 L973.3704,137.5705 L970.7768,138.7693 L970.7541,138.7285 L968.3592,140.191 L966.0416,141.7924 L963.3574,142.7353 L961.0491,144.3534 L958.5285,145.5902 L958.5962,145.7038 L956.222,147.0256 L953.894,148.425 L951.5535,149.8035 L949.0449,150.8995 L946.8588,152.5371 L946.7599,152.3801 L944.553,153.7369 L942.4907,155.3233 L940.3049,156.7134 L938.1312,158.1228 L935.8994,159.44 L935.8251,159.3277 L933.8587,160.7517 L931.8218,162.0691 L929.9764,163.6761 L927.9146,164.9558 L925.7823,166.1289 " fill="none" style="stroke:#333333;stroke-width:3.125;"/><polygon fill="#333333" points="921.4219,169.1048,921.435,169.1766,923.4145,168.5946,925.4708,168.4335,927.5022,168.1353,929.4512,167.3865,931.5142,167.2615,931.5091,167.235,930.3286,166.8975,929.1733,166.6936,928.0356,166.5826,926.8374,166.1514,925.7238,166.1688,925.9127,166.2044,925.7273,164.9701,926.0934,163.8399,926.5268,162.7224,926.5687,161.531,926.8165,160.3784,926.8367,160.3909,925.7282,162.1179,924.7114,163.9016,923.6504,165.6579,922.6738,167.4665,921.4219,169.1048" style="stroke:#333333;stroke-width:3.125;"/></g><!--link OLD_ETUDIANT to voir E.D.T Perso Annee--><g id="link_OLD_ETUDIANT_voir E.D.T Perso Annee"><path d="M1592.0625,61.3802 L1592.064,61.6721 L1581.0774,60.8607 L1570.0995,61.7605 L1559.1188,62.1031 L1548.1288,60.6131 L1537.1511,61.5519 L1526.1665,61.1234 L1515.1873,61.7717 L1515.1817,61.2391 L1505.5664,61.778 L1495.9374,61.0136 L1486.3357,62.8437 L1476.6985,61.3005 L1467.0878,62.2768 L1467.0837,62.0022 L1456.4636,63.0346 L1445.8199,62.4736 L1435.19,62.8455 L1424.5548,62.8643 L1413.9224,63.0666 L1413.9273,63.3145 L1402.489,63.6253 L1391.0585,64.3332 L1379.6209,64.6784 L1368.1811,64.9165 L1356.7224,64.1999 L1356.7314,64.5534 L1346.705,65.0995 L1336.6796,65.6867 L1326.5954,63.9663 L1316.6111,66.1656 L1306.5428,65.0678 L1296.5195,65.7354 L1296.5433,66.4764 L1286.135,65.3809 L1275.7916,66.3058 L1265.4653,67.7631 L1255.0676,66.9987 L1244.7121,67.5453 L1234.345,67.7319 L1234.3637,68.2018 L1223.8489,68.7289 L1213.3066,68.5652 L1202.8036,69.3886 L1192.237,68.615 L1181.7653,70.2235 L1171.2305,70.2482 L1171.2423,70.5017 L1164.9226,70.748 L1158.6087,71.1203 L1152.2676,70.9076 L1145.9465,71.1237 L1139.643,71.7196 L1139.6282,71.4323 L1133.3545,72.0171 L1127.0641,72.2781 L1120.7979,73.0087 L1114.4903,72.9376 L1108.2074,73.3431 L1108.1983,73.1845 L1101.9824,73.8051 L1095.7278,73.748 L1089.5007,74.1728 L1083.3006,75.0692 L1077.0525,75.1259 L1077.0652,75.3272 L1070.9249,75.8551 L1064.7449,75.757 L1058.6146,76.443 L1052.4735,76.9582 L1046.3072,77.0753 L1046.2919,76.8572 L1040.2627,77.4558 L1034.2286,77.9829 L1028.2044,78.6504 L1022.1417,78.7722 L1016.1005,79.1989 L1016.1172,79.4124 L1010.1728,79.4042 L1004.2605,79.8082 L998.3952,80.8143 L992.4434,80.7119 L986.5614,81.5038 L986.5818,81.7385 L980.8211,82.0978 L975.0536,82.3777 L969.3016,82.8368 L963.5856,83.7103 L957.8187,83.9974 L957.8054,83.8595 L952.2816,84.8081 L946.6672,84.8186 L941.1559,85.8958 L935.5865,86.3724 L930.0015,86.6871 L930.0137,86.7999 L924.6512,87.2875 L919.3324,88.1789 L913.9742,88.7055 L908.5995,89.0796 L903.2385,89.5803 L903.2535,89.7036 L898.1153,90.1412 L893.0466,91.1512 L887.8994,91.5138 L882.7844,92.1428 L877.6589,92.6843 L877.6207,92.4052 L872.7799,93.1628 L867.9852,94.2565 L863.1254,94.8746 L858.2422,95.3222 L853.3914,96.0063 L853.3685,95.8589 L848.8106,96.6157 L844.2121,97.1114 L839.7251,98.3246 L835.183,99.1827 L830.5651,99.5539 L830.6078,99.7938 L826.3702,100.6267 L822.0515,101.0037 L817.8185,101.8619 L813.5287,102.4015 L809.3089,103.3343 L809.3354,103.4631 L805.4205,104.2503 L801.5375,105.193 L797.5531,105.6424 L793.6506,106.4897 L789.7517,107.3548 L789.7997,107.5544 L786.2673,108.4638 L782.6044,108.8313 L779.0931,109.8284 L775.5844,110.8365 L772.0224,111.6229 L771.9444,111.351 L768.913,112.6847 L765.7464,113.5469 L762.5461,114.2918 L759.4226,115.3045 L756.25,116.1458 L756.3629,116.4637 L753.6162,116.9272 L751.128,118.119 L748.5381,119.0241 L745.9264,119.8679 L743.3231,120.7352 L743.3487,120.7952 L740.7796,121.8796 L738.0812,122.6616 L735.5577,123.8528 L732.9826,124.923 L730.5024,126.2155 L730.5154,126.242 L728.003,127.4885 L725.5007,128.7555 L722.891,129.8038 L720.4192,131.133 L717.9156,132.3974 L717.8889,132.3486 L715.5988,133.9705 L713.1204,135.2484 L710.4725,136.2168 L708.1192,137.7232 L705.6904,139.0917 L705.5532,138.8623 L703.4117,140.6097 L701.1405,142.1404 L698.7781,143.5185 L696.198,144.5325 L693.9543,146.109 L694.0705,146.2897 L691.5444,147.25 L689.5567,149.0474 L687.2077,150.2832 L685.083,151.8676 L682.835,153.2602 L682.8978,153.352 L680.8834,154.8597 L678.4969,155.8233 L676.7343,157.6993 L674.5816,159.0048 L672.4601,160.3558 L672.5563,160.4893 L670.762,162.0069 L668.6605,163.0983 L666.8059,164.5322 L664.9156,165.9167 L662.9573,167.2068 " fill="none" style="stroke:#333333;stroke-width:3.125;"/><polygon fill="#333333" points="658.5906,170.468,658.6068,170.5392,660.5597,169.8736,662.6074,169.6252,664.6242,169.241,666.5397,168.41,668.5954,168.1974,668.5916,168.1707,667.4079,167.8818,666.2437,167.7274,665.0931,167.6666,663.8957,167.2834,662.7639,167.3518,662.9541,167.3794,662.7164,166.1541,663.0342,165.0093,663.4197,163.8744,663.4109,162.6823,663.6095,161.5203,663.6302,161.5318,662.5961,163.3044,661.656,165.1297,660.6706,166.9295,659.7718,168.778,658.5906,170.468" style="stroke:#333333;stroke-width:3.125;"/></g><!--link OLD_ETUDIANT to voir E.D.T Perso salle--><g id="link_OLD_ETUDIANT_voir E.D.T Perso salle"><path d="M1592.0208,62.3927 L1592.0268,62.6846 L1581.79,62.0274 L1571.5884,63.0812 L1561.3753,63.5778 L1551.1246,62.2422 L1540.9238,63.3349 L1530.6949,63.0606 L1520.4771,63.3303 L1510.2672,63.9782 L1500.0304,63.3229 L1489.8312,64.4929 L1489.8495,65.2617 L1479.7674,63.8566 L1469.7386,64.696 L1459.7164,65.8093 L1449.6563,65.3293 L1439.6184,65.782 L1429.5721,65.8817 L1419.536,66.4128 L1409.495,66.7358 L1399.4635,67.4559 L1389.4233,67.8132 L1379.3805,68.0635 L1369.3235,67.7127 L1359.2874,68.2417 L1349.2291,67.8369 L1349.2552,68.8119 L1339.1779,67.1044 L1329.2056,69.3165 L1319.1449,68.2316 L1309.1515,69.6532 L1299.0888,68.4935 L1289.0803,69.3545 L1279.0861,70.748 L1269.0341,69.9871 L1269.0322,69.9195 L1258.4903,70.4428 L1247.9517,71.0761 L1237.4067,71.4933 L1226.8414,71.2194 L1216.3052,71.933 L1205.722,71.049 L1195.2088,72.548 L1184.6491,72.4626 L1184.6737,73.2236 L1173.8227,73.4303 L1162.9839,74.0149 L1152.0883,72.844 L1141.2344,72.9599 L1130.3894,73.3533 L1119.5683,74.4849 L1108.7157,74.6444 L1097.8782,75.2679 L1097.9122,76.2137 L1086.9504,75.418 L1076.023,75.5768 L1065.1324,76.7623 L1054.1687,75.9124 L1043.257,76.5099 L1032.3963,78.5237 L1021.4666,78.6201 L1010.5258,78.4079 L1010.567,79.4272 L999.7415,78.3963 L989.0113,79.7208 L978.2603,80.5321 L967.4345,79.4921 L956.6894,80.4496 L945.9357,81.1924 L935.199,82.3569 L924.3962,81.8874 L924.3959,81.8816 L914.0379,83.0071 L903.5853,82.0749 L893.1896,82.3816 L882.8772,84.4979 L872.4114,83.2824 L862.1019,85.4612 L851.6948,85.5197 L841.2938,85.711 L841.2875,85.5871 L833.315,85.9559 L825.3638,86.74 L817.3754,86.798 L809.4261,87.6185 L801.4416,87.7533 L801.4275,87.4978 L793.7737,88.4648 L786.0865,88.8293 L778.3966,89.1447 L770.7078,89.4793 L763.0229,89.8835 L763.0431,90.2193 L755.688,90.6107 L748.3237,90.8491 L740.9745,91.3386 L733.6114,91.5982 L726.2631,92.1021 L726.285,92.433 L719.2927,92.6351 L712.3182,93.1048 L705.3193,93.2056 L698.3504,93.7609 L691.3877,94.4097 L691.4057,94.6547 L684.8492,95.0875 L678.2802,95.3487 L671.7177,95.6992 L665.1681,96.2263 L658.6224,96.8068 L658.5966,96.4902 L652.5521,97.4957 L646.4784,98.143 L640.3845,98.5422 L634.3049,99.1174 L628.1927,99.2942 L628.1869,99.2312 L622.6227,99.8501 L617.0287,100.1468 L611.4837,100.9721 L605.9084,101.4705 L600.3241,101.8724 L600.3512,102.1267 L595.2965,102.3006 L590.2847,102.8783 L585.2967,103.6783 L580.2863,104.2692 L575.2422,104.5419 L575.2127,104.3065 L570.8171,105.0052 L566.4228,105.7151 L561.9652,105.9183 L557.6067,106.9135 L553.1724,107.3035 L553.1903,107.4216 L549.399,107.8282 L545.6494,108.5102 L541.9237,109.3495 L538.0851,109.4435 L534.3404,110.1576 L534.3678,110.3008 L531.2915,110.8769 L528.203,111.3891 L525.1314,111.99 L522.0553,112.567 L518.9716,113.1048 L518.8988,112.8252 L516.5889,113.5334 L514.2458,114.1144 L511.9711,114.958 L509.6379,115.5771 L507.2917,116.1458 L507.317,116.2163 L504.677,116.9417 L502.1429,117.9617 L499.5656,118.8613 L497.1055,120.0877 L494.4462,120.759 L494.5253,120.9399 L491.8149,121.6648 L489.3502,122.9515 L486.7153,123.8493 L484.3347,125.3281 L481.74,126.3175 L481.8672,126.5688 L479.3659,127.8025 L476.673,128.6578 L474.3732,130.2894 L471.6329,131.051 L469.3003,132.6179 L469.3461,132.6985 L466.8227,133.8652 L464.5041,135.3924 L462.1278,136.8179 L459.7716,138.279 L457.2546,139.4567 L457.0784,139.1738 L455.066,141.0783 L452.6883,142.3962 L450.4268,143.9006 L448.2179,145.4896 L445.7301,146.6304 L445.7315,146.6326 L443.6001,148.1588 L441.4348,149.6346 L439.2554,151.0894 L437.0291,152.4743 L434.8541,153.9357 L435.0457,154.2032 L432.6698,155.1528 L430.9665,157.0417 L428.6259,158.0407 L426.6284,159.5188 L424.7541,161.1688 L424.7653,161.1836 L422.9226,162.5708 L420.9377,163.77 L419.3516,165.4962 L417.4271,166.7752 L415.5573,168.1266 " fill="none" style="stroke:#333333;stroke-width:3.125;"/><polygon fill="#333333" points="411.3542,171.425,411.372,171.4958,413.3084,170.7834,415.3495,170.4859,417.3565,170.0533,419.2514,169.1765,421.3015,168.9146,421.2983,168.8878,420.1137,168.6265,418.9455,168.5003,417.7885,168.468,416.5926,168.1121,415.4513,168.2094,415.6422,168.2324,415.3751,167.0131,415.6652,165.8611,416.0233,164.7172,415.9859,163.5256,416.1565,162.3592,416.1774,162.3703,415.1862,164.1671,414.2903,166.0145,413.3485,167.8375,412.4943,169.707,411.3542,171.425" style="stroke:#333333;stroke-width:3.125;"/></g><!--link OLD_ETUDIANT to voir Progression Cours--><g id="link_OLD_ETUDIANT_voir Progression Cours"><path d="M1592.1667,61.9781 L1592.1703,62.27 L1581.3324,61.537 L1570.5157,62.515 L1559.6922,62.9359 L1548.8459,61.5243 L1538.0297,62.5414 L1527.1965,62.1912 L1516.3701,62.3852 L1505.5484,62.9573 L1494.7106,62.2261 L1483.9049,64.0894 L1473.0682,63.4547 L1473.0555,62.5794 L1463.1389,63.3246 L1453.2263,64.3437 L1443.2906,63.7693 L1433.3684,64.1277 L1423.441,64.1331 L1413.52,64.57 L1403.5959,64.7987 L1393.6658,64.6112 L1393.6791,65.4245 L1383.7266,65.7059 L1373.7724,65.8802 L1363.8084,65.4534 L1353.8588,65.9065 L1343.9098,66.4007 L1333.9231,64.5869 L1324.0005,66.6935 L1314.024,65.5024 L1304.0763,66.077 L1304.09,66.8183 L1293.2314,65.5894 L1282.4101,66.3815 L1271.5987,67.7063 L1260.7462,66.8085 L1249.9179,67.2222 L1239.0917,67.746 L1228.2614,68.0536 L1217.4185,67.67 L1206.5863,67.8752 L1206.5947,68.274 L1196.2593,67.2957 L1185.9737,68.7008 L1175.671,69.2824 L1165.3576,69.3538 L1155.052,69.8031 L1144.7098,68.4964 L1134.3945,68.477 L1124.085,68.735 L1113.7909,69.7315 L1103.4822,70.0286 L1103.4757,69.7557 L1092.8615,71.2279 L1082.19,70.2924 L1071.5412,70.3117 L1060.9169,71.3582 L1050.2441,70.3685 L1039.6058,70.8267 L1029.0012,72.7018 L1018.351,72.6588 L1007.7176,73.3268 L997.0502,72.5602 L997.038,72.1134 L986.3149,73.2966 L975.5779,73.9664 L964.7903,72.7841 L954.0572,73.6001 L943.3183,74.2014 L932.5909,75.2247 L921.8187,74.6072 L911.089,75.5485 L900.3032,74.4307 L889.5768,75.4928 L889.5471,74.5527 L878.9761,76.5276 L868.2997,75.1689 L857.7306,77.2064 L847.0945,77.1224 L836.4509,76.7993 L825.8243,77.0158 L815.2371,78.4794 L804.581,77.7627 L793.9973,79.3355 L783.3485,78.8495 L783.3212,78.0823 L772.9923,80.0754 L762.5992,80.2596 L752.2008,80.2963 L741.8045,80.3907 L731.4156,80.6941 L731.4546,81.7025 L721.2957,81.9375 L711.119,81.7126 L700.9715,82.2418 L690.7973,82.0806 L680.6515,82.6532 L680.6933,83.6474 L670.7986,83.2835 L660.9377,83.7233 L651.0301,83.055 L641.18,83.7522 L631.3417,84.7298 L631.3758,85.4662 L621.8554,85.7655 L612.3112,85.5491 L602.7794,85.601 L593.2721,86.1837 L583.7723,86.9268 L583.7561,86.6095 L574.6733,87.5826 L565.5723,88.1968 L556.4586,88.5623 L547.3539,89.1042 L538.2288,89.247 L538.2253,89.1838 L529.5848,89.7765 L520.9261,90.0463 L512.2973,90.846 L503.65,91.318 L494.9972,91.6932 L495.0134,91.9484 L486.8637,92.1021 L478.7397,92.6612 L470.6298,93.4432 L462.5067,94.0155 L454.3633,94.2684 L454.3463,94.0317 L446.8068,94.7203 L439.268,95.4201 L431.6927,95.6105 L424.1746,96.5972 L416.6128,96.9754 L416.6225,97.0944 L409.6927,97.4972 L402.7856,98.1777 L395.8916,99.0166 L388.9359,99.1044 L382.0315,99.8171 L382.0454,99.9622 L375.8188,100.5445 L369.5861,101.0621 L363.362,101.6695 L357.1355,102.2527 L350.9053,102.7963 L350.8725,102.5092 L345.4072,103.2358 L339.9269,103.8318 L334.4774,104.6974 L329.0016,105.3325 L323.5199,105.9159 L323.5297,105.9901 L321.0621,106.105 L318.6355,106.5302 L316.1922,106.8287 L313.7944,107.4713 L311.3193,107.5292 L311.3482,107.7246 L309.0548,107.6368 L306.8511,108.1556 L304.5853,108.2546 L302.4123,108.9809 L300.1611,109.1788 L300.2107,109.4561 L296.3962,110.1087 L292.507,110.3439 L288.7711,111.4356 L284.8634,111.5675 L281.1148,112.5878 L281.1369,112.6778 L278.192,113.1649 L275.3462,114.0545 L272.4725,114.8307 L269.6085,115.6465 L266.6667,116.1458 L266.5588,115.8305 L264.1271,117.2474 L261.4718,118.0105 L258.8876,118.9814 L256.3356,120.0467 L253.6128,120.6124 L253.6137,120.6148 L251.0557,121.7659 L248.4743,122.8607 L245.8832,123.9324 L243.2597,124.9263 L240.6716,126.0052 L240.8145,126.3016 L238.0088,126.976 L235.7051,128.6911 L232.9258,129.4203 L230.4025,130.6803 L227.9711,132.1308 L227.9799,132.147 L225.511,133.4753 L222.93,134.596 L220.6632,136.2982 L218.1297,137.5071 L215.6395,138.7957 L215.8109,139.0852 L213.4299,140.4637 L210.7997,141.4216 L208.4447,142.8438 L206.1411,144.3531 L203.8046,145.8068 L203.8932,145.9455 L201.6631,147.3967 L199.3957,148.7897 L196.9934,149.9716 L194.9953,151.786 L192.5946,152.9705 L192.7598,153.213 L190.4909,154.377 L188.3495,155.7282 L186.2158,157.0907 L184.1731,158.5868 L182.1376,160.0935 L182.1747,160.1452 L180.2039,161.4456 L178.1942,162.6921 L176.5237,164.4101 L174.3526,165.4322 L172.5615,166.9825 " fill="none" style="stroke:#333333;stroke-width:3.125;"/><polygon fill="#333333" points="168.1615,170.2653,168.1776,170.3365,170.1308,169.6717,172.1786,169.4241,174.1955,169.0407,176.1113,168.2105,178.1672,167.9987,178.1633,167.972,176.9796,167.6826,175.8155,167.5278,174.665,167.4665,173.4677,167.0828,172.336,167.1508,172.5262,167.1784,172.289,165.953,172.6072,164.8084,172.9931,163.6736,172.9848,162.4815,173.1839,161.3196,173.2046,161.3311,172.1698,163.1033,171.229,164.9282,170.2428,166.7277,169.3433,168.5757,168.1615,170.2653" style="stroke:#333333;stroke-width:3.125;"/></g><!--SRC=[bT11IyDG3C3nUpz5XfTvM3-2CErWWcXXzJn23TrRtqjAydGhOzzznNhmPho6NqBuB_A14e7rbDl3M5WVU4351DXcqLqU8m6Uo2HHyJs2jvTglsdUg-VrQrCCsFRO4Mp7WRIEo1ouWxl7ECqlnMyAgmyvyUe1bbyI53PbLJP0vrp2KJxrtccD4WOcBqyIp6jtKmVBwhwzPYOtDepHWsjI4s-H6VkJpDxPPCR_Y38lUAly_FvdbbgbKp8Bml0qPPbUlzu0]--></g></svg>