<?xml version="1.0" encoding="UTF-8" standalone="no"?>
<svg xmlns="http://www.w3.org/2000/svg" xmlns:xlink="http://www.w3.org/1999/xlink" contentStyleType="text/css" height="228px" preserveAspectRatio="none" style="width:241px;height:228px;background:#FFFFFF;" version="1.1" viewBox="0 0 241 228" width="241px" zoomAndPan="magnify"><defs/><g><!--class Slot--><g id="elem_Slot"><rect codeLine="4" fill="#F1F1F1" height="48" id="Slot" rx="3.5" ry="3.5" style="stroke:#181818;stroke-width:0.5;" width="61" x="7" y="90"/><ellipse cx="22" cy="106" fill="#ADD1B2" rx="11" ry="11" style="stroke:#181818;stroke-width:1.0;"/><path d="M24.3438,101.6719 C23.4063,101.2344 22.8125,101.0938 21.9375,101.0938 C19.3125,101.0938 17.3125,103.1719 17.3125,105.8906 L17.3125,107.0156 C17.3125,109.5938 19.4219,111.4844 22.3125,111.4844 C23.5313,111.4844 24.6875,111.1875 25.4375,110.6406 C26.0156,110.2344 26.3438,109.7813 26.3438,109.3906 C26.3438,108.9375 25.9531,108.5469 25.4844,108.5469 C25.2656,108.5469 25.0625,108.625 24.875,108.8125 C24.4219,109.2969 24.4219,109.2969 24.2344,109.3906 C23.8125,109.6563 23.125,109.7813 22.3594,109.7813 C20.3125,109.7813 19.0156,108.6875 19.0156,106.9844 L19.0156,105.8906 C19.0156,104.1094 20.2656,102.7969 22,102.7969 C22.5781,102.7969 23.1875,102.9531 23.6563,103.2031 C24.1406,103.4844 24.3125,103.7031 24.4063,104.1094 C24.4688,104.5156 24.5,104.6406 24.6406,104.7656 C24.7813,104.9063 25.0156,105.0156 25.2344,105.0156 C25.5,105.0156 25.7656,104.875 25.9375,104.6563 C26.0469,104.5 26.0781,104.3125 26.0781,103.8906 L26.0781,102.4688 C26.0781,102.0313 26.0625,101.9063 25.9688,101.75 C25.8125,101.4844 25.5313,101.3438 25.2344,101.3438 C24.9375,101.3438 24.7344,101.4375 24.5156,101.75 L24.3438,101.6719 Z " fill="#000000"/><text fill="#000000" font-family="sans-serif" font-size="14" lengthAdjust="spacing" textLength="29" x="36" y="110.8467">Slot</text><line style="stroke:#181818;stroke-width:0.5;" x1="8" x2="67" y1="122" y2="122"/><line style="stroke:#181818;stroke-width:0.5;" x1="8" x2="67" y1="130" y2="130"/></g><!--class Classroom--><g id="elem_Classroom"><rect codeLine="8" fill="#F1F1F1" height="48" id="Classroom" rx="3.5" ry="3.5" style="stroke:#181818;stroke-width:0.5;" width="106" x="128" y="7"/><ellipse cx="143" cy="23" fill="#ADD1B2" rx="11" ry="11" style="stroke:#181818;stroke-width:1.0;"/><path d="M145.3438,18.6719 C144.4063,18.2344 143.8125,18.0938 142.9375,18.0938 C140.3125,18.0938 138.3125,20.1719 138.3125,22.8906 L138.3125,24.0156 C138.3125,26.5938 140.4219,28.4844 143.3125,28.4844 C144.5313,28.4844 145.6875,28.1875 146.4375,27.6406 C147.0156,27.2344 147.3438,26.7813 147.3438,26.3906 C147.3438,25.9375 146.9531,25.5469 146.4844,25.5469 C146.2656,25.5469 146.0625,25.625 145.875,25.8125 C145.4219,26.2969 145.4219,26.2969 145.2344,26.3906 C144.8125,26.6563 144.125,26.7813 143.3594,26.7813 C141.3125,26.7813 140.0156,25.6875 140.0156,23.9844 L140.0156,22.8906 C140.0156,21.1094 141.2656,19.7969 143,19.7969 C143.5781,19.7969 144.1875,19.9531 144.6563,20.2031 C145.1406,20.4844 145.3125,20.7031 145.4063,21.1094 C145.4688,21.5156 145.5,21.6406 145.6406,21.7656 C145.7813,21.9063 146.0156,22.0156 146.2344,22.0156 C146.5,22.0156 146.7656,21.875 146.9375,21.6563 C147.0469,21.5 147.0781,21.3125 147.0781,20.8906 L147.0781,19.4688 C147.0781,19.0313 147.0625,18.9063 146.9688,18.75 C146.8125,18.4844 146.5313,18.3438 146.2344,18.3438 C145.9375,18.3438 145.7344,18.4375 145.5156,18.75 L145.3438,18.6719 Z " fill="#000000"/><text fill="#000000" font-family="sans-serif" font-size="14" lengthAdjust="spacing" textLength="74" x="157" y="27.8467">Classroom</text><line style="stroke:#181818;stroke-width:0.5;" x1="129" x2="233" y1="39" y2="39"/><line style="stroke:#181818;stroke-width:0.5;" x1="129" x2="233" y1="47" y2="47"/></g><!--class Subject--><g id="elem_Subject"><rect codeLine="12" fill="#F1F1F1" height="48" id="Subject" rx="3.5" ry="3.5" style="stroke:#181818;stroke-width:0.5;" width="87" x="137.5" y="90"/><ellipse cx="152.5" cy="106" fill="#ADD1B2" rx="11" ry="11" style="stroke:#181818;stroke-width:1.0;"/><path d="M154.8438,101.6719 C153.9063,101.2344 153.3125,101.0938 152.4375,101.0938 C149.8125,101.0938 147.8125,103.1719 147.8125,105.8906 L147.8125,107.0156 C147.8125,109.5938 149.9219,111.4844 152.8125,111.4844 C154.0313,111.4844 155.1875,111.1875 155.9375,110.6406 C156.5156,110.2344 156.8438,109.7813 156.8438,109.3906 C156.8438,108.9375 156.4531,108.5469 155.9844,108.5469 C155.7656,108.5469 155.5625,108.625 155.375,108.8125 C154.9219,109.2969 154.9219,109.2969 154.7344,109.3906 C154.3125,109.6563 153.625,109.7813 152.8594,109.7813 C150.8125,109.7813 149.5156,108.6875 149.5156,106.9844 L149.5156,105.8906 C149.5156,104.1094 150.7656,102.7969 152.5,102.7969 C153.0781,102.7969 153.6875,102.9531 154.1563,103.2031 C154.6406,103.4844 154.8125,103.7031 154.9063,104.1094 C154.9688,104.5156 155,104.6406 155.1406,104.7656 C155.2813,104.9063 155.5156,105.0156 155.7344,105.0156 C156,105.0156 156.2656,104.875 156.4375,104.6563 C156.5469,104.5 156.5781,104.3125 156.5781,103.8906 L156.5781,102.4688 C156.5781,102.0313 156.5625,101.9063 156.4688,101.75 C156.3125,101.4844 156.0313,101.3438 155.7344,101.3438 C155.4375,101.3438 155.2344,101.4375 155.0156,101.75 L154.8438,101.6719 Z " fill="#000000"/><text fill="#000000" font-family="sans-serif" font-size="14" lengthAdjust="spacing" textLength="55" x="166.5" y="110.8467">Subject</text><line style="stroke:#181818;stroke-width:0.5;" x1="138.5" x2="223.5" y1="122" y2="122"/><line style="stroke:#181818;stroke-width:0.5;" x1="138.5" x2="223.5" y1="130" y2="130"/></g><!--class Group--><g id="elem_Group"><rect codeLine="16" fill="#F1F1F1" height="48" id="Group" rx="3.5" ry="3.5" style="stroke:#181818;stroke-width:0.5;" width="76" x="143" y="173"/><ellipse cx="158" cy="189" fill="#ADD1B2" rx="11" ry="11" style="stroke:#181818;stroke-width:1.0;"/><path d="M160.3438,184.6719 C159.4063,184.2344 158.8125,184.0938 157.9375,184.0938 C155.3125,184.0938 153.3125,186.1719 153.3125,188.8906 L153.3125,190.0156 C153.3125,192.5938 155.4219,194.4844 158.3125,194.4844 C159.5313,194.4844 160.6875,194.1875 161.4375,193.6406 C162.0156,193.2344 162.3438,192.7813 162.3438,192.3906 C162.3438,191.9375 161.9531,191.5469 161.4844,191.5469 C161.2656,191.5469 161.0625,191.625 160.875,191.8125 C160.4219,192.2969 160.4219,192.2969 160.2344,192.3906 C159.8125,192.6563 159.125,192.7813 158.3594,192.7813 C156.3125,192.7813 155.0156,191.6875 155.0156,189.9844 L155.0156,188.8906 C155.0156,187.1094 156.2656,185.7969 158,185.7969 C158.5781,185.7969 159.1875,185.9531 159.6563,186.2031 C160.1406,186.4844 160.3125,186.7031 160.4063,187.1094 C160.4688,187.5156 160.5,187.6406 160.6406,187.7656 C160.7813,187.9063 161.0156,188.0156 161.2344,188.0156 C161.5,188.0156 161.7656,187.875 161.9375,187.6563 C162.0469,187.5 162.0781,187.3125 162.0781,186.8906 L162.0781,185.4688 C162.0781,185.0313 162.0625,184.9063 161.9688,184.75 C161.8125,184.4844 161.5313,184.3438 161.2344,184.3438 C160.9375,184.3438 160.7344,184.4375 160.5156,184.75 L160.3438,184.6719 Z " fill="#000000"/><text fill="#000000" font-family="sans-serif" font-size="14" lengthAdjust="spacing" textLength="44" x="172" y="193.8467">Group</text><line style="stroke:#181818;stroke-width:0.5;" x1="144" x2="218" y1="205" y2="205"/><line style="stroke:#181818;stroke-width:0.5;" x1="144" x2="218" y1="213" y2="213"/></g><!--reverse link Slot to Classroom--><g id="link_Slot_Classroom"><path codeLine="20" d="M79.5632,89.913 C98.1988,78.982 120.191,66.082 138.838,55.144 " fill="none" id="Slot-backto-Classroom" style="stroke:#454645;stroke-width:1.0;"/><polygon fill="none" points="68.163,96.6,75.3622,97.0148,78.514,90.5289,71.3148,90.1142,68.163,96.6" style="stroke:#454645;stroke-width:1.0;"/><text fill="#000000" font-family="sans-serif" font-size="13" lengthAdjust="spacing" textLength="24" x="76.029" y="106.8538">1..0</text></g><!--link Slot to Subject--><g id="link_Slot_Subject"><path codeLine="21" d="M68.163,114 C88.2609,114 115.128,114 137.491,114 " fill="none" id="Slot-Subject" style="stroke:#454645;stroke-width:1.0;"/><text fill="#000000" font-family="sans-serif" font-size="13" lengthAdjust="spacing" textLength="24" x="76.029" y="127.462">1..1</text></g><!--reverse link Slot to Group--><g id="link_Slot_Group"><path codeLine="22" d="M79.4282,138.0074 C99.4318,149.7409 123.329,163.7581 142.808,175.1843 " fill="none" id="Slot-backto-Group" style="stroke:#454645;stroke-width:1.0;"/><polygon fill="none" points="68.163,131.3995,71.3145,137.8855,78.5137,137.471,75.3622,130.985,68.163,131.3995" style="stroke:#454645;stroke-width:1.0;"/><text fill="#000000" font-family="sans-serif" font-size="13" lengthAdjust="spacing" textLength="24" x="76.029" y="148.0695">1..n</text></g><!--SRC=[JOnD3a1034RtFKNDdd062mTm0Z-3aJ6LAXRYxlupDatwNhuNIAS7ZOifkN02LZU2GiYcxGHhmxeIGmwWiiKqOMv9De3z-zFhCj7mX_bSzkViZpAcUNp0bK2LH56iaCAQLXVwZBU9mbU-EQ-S7zxT0m00]--></g></svg>