<?xml version="1.0" encoding="UTF-8" standalone="no"?>
<svg xmlns="http://www.w3.org/2000/svg" xmlns:xlink="http://www.w3.org/1999/xlink" contentStyleType="text/css" height="187px" preserveAspectRatio="none" style="width:393px;height:187px;background:#FFFFFF;" version="1.1" viewBox="0 0 393 187" width="393px" zoomAndPan="magnify"><defs/><g><!--MD5=[3df730ccdafe169e8e9d34344780ad50]
entity HyperPlanning--><g id="elem_HyperPlanning"><path d="M122,141.5 L239,141.5 A3.75,3.75 0 0 1 241.5,144 L248.5,163.7969 L263,163.7969 A2.5,2.5 0 0 1 265.5,166.2969 L265.5,178.2969 A2.5,2.5 0 0 1 263,180.7969 L122,180.7969 A2.5,2.5 0 0 1 119.5,178.2969 L119.5,144 A2.5,2.5 0 0 1 122,141.5 " fill="#F1F1F1" style="stroke:#181818;stroke-width:0.5;"/><line style="stroke:#181818;stroke-width:0.5;" x1="119.5" x2="248.5" y1="163.7969" y2="163.7969"/><text fill="#000000" font-family="sans-serif" font-size="14" lengthAdjust="spacing" textLength="104" x="129.5" y="157.4951">HyperPlanning</text></g><!--MD5=[e8ef53871a935dc9c7bb89678d8a5eb1]
entity Etudiant--><g id="elem_Etudiant"><ellipse cx="36.5" cy="14" fill="#F1F1F1" rx="8" ry="8" style="stroke:#181818;stroke-width:0.5;"/><path d="M36.5,22 L36.5,49 M23.5,30 L49.5,30 M36.5,49 L23.5,64 M36.5,49 L49.5,64 " fill="none" style="stroke:#181818;stroke-width:0.5;"/><text fill="#000000" font-family="sans-serif" font-size="14" lengthAdjust="spacing" textLength="61" x="6" y="78.4951">Etudiant</text></g><!--MD5=[16b15d6cd6ee62b11a1c3dc9200ccdf6]
entity Enseignant--><g id="elem_Enseignant"><ellipse cx="142.5" cy="14" fill="#F1F1F1" rx="8" ry="8" style="stroke:#181818;stroke-width:0.5;"/><path d="M142.5,22 L142.5,49 M129.5,30 L155.5,30 M142.5,49 L129.5,64 M142.5,49 L155.5,64 " fill="none" style="stroke:#181818;stroke-width:0.5;"/><text fill="#000000" font-family="sans-serif" font-size="14" lengthAdjust="spacing" textLength="80" x="102.5" y="78.4951">Enseignant</text></g><!--MD5=[dcd73ea5c955677a2db47dc91b7ee98e]
entity Invitéé--><g id="elem_Invitéé"><ellipse cx="242.5" cy="14" fill="#F1F1F1" rx="8" ry="8" style="stroke:#181818;stroke-width:0.5;"/><path d="M242.5,22 L242.5,49 M229.5,30 L255.5,30 M242.5,49 L229.5,64 M242.5,49 L255.5,64 " fill="none" style="stroke:#181818;stroke-width:0.5;"/><text fill="#000000" font-family="sans-serif" font-size="14" lengthAdjust="spacing" textLength="50" x="217.5" y="78.4951">Invitéé</text></g><!--MD5=[faf7727fd04d6f8e9f5d233ac390292f]
entity Gestionaire--><g id="elem_Gestionaire"><ellipse cx="344.5" cy="14" fill="#F1F1F1" rx="8" ry="8" style="stroke:#181818;stroke-width:0.5;"/><path d="M344.5,22 L344.5,49 M331.5,30 L357.5,30 M344.5,49 L331.5,64 M344.5,49 L357.5,64 " fill="none" style="stroke:#181818;stroke-width:0.5;"/><text fill="#000000" font-family="sans-serif" font-size="14" lengthAdjust="spacing" textLength="83" x="303" y="78.4951">Gestionaire</text></g><!--MD5=[d7ed2625a427b1bd7ecb456a4690edad]
link Etudiant to HyperPlanning--><g id="link_Etudiant_HyperPlanning"><path d="M67.1295,68.315 C72.8793,72.728 78.8566,77.275 84.5,81.5 C112.334,102.337 144.629,125.7064 166.601,141.4868 " fill="none" id="Etudiant-HyperPlanning" style="stroke:#181818;stroke-width:1.0;"/></g><!--MD5=[2c8db04c560060fe3a55be7ca9d40ce4]
link Enseignant to HyperPlanning--><g id="link_Enseignant_HyperPlanning"><path d="M158.596,81.6807 C167.217,101.5964 177.464,125.2663 184.419,141.3326 " fill="none" id="Enseignant-HyperPlanning" style="stroke:#181818;stroke-width:1.0;"/></g><!--MD5=[b516176a2a297cd3495f766175f7a6e5]
link Invitéé to HyperPlanning--><g id="link_Invitéé_HyperPlanning"><path d="M226.404,81.6807 C217.783,101.5964 207.536,125.2663 200.581,141.3326 " fill="none" id="Invitéé-HyperPlanning" style="stroke:#181818;stroke-width:1.0;"/></g><!--MD5=[d737fa0fe8275439aae9a9d34187f4e5]
link Gestionaire to HyperPlanning--><g id="link_Gestionaire_HyperPlanning"><path d="M302.965,76.061 C275.365,97.0335 240.071,123.8526 216.9,141.4589 " fill="none" id="Gestionaire-HyperPlanning" style="stroke:#181818;stroke-width:1.0;"/></g><!--MD5=[b42950adeb25df3dcb3131c919f7db4f]
@startuml
actor Etudiant
actor Enseignant
actor Invitéé
actor Gestionaire
package HyperPlanning{

}
Etudiant - - HyperPlanning
Enseignant - - HyperPlanning
Invitéé - - HyperPlanning
Gestionaire - - HyperPlanning
@enduml

PlantUML version 1.2022.13beta2(Unknown compile time)
(GPL source distribution)
Java Runtime: Java(TM) SE Runtime Environment
JVM: Java HotSpot(TM) 64-Bit Server VM
Default Encoding: UTF-8
Language: en
Country: US
--></g></svg>