<?xml version="1.0" encoding="UTF-8" standalone="no"?>
<svg xmlns="http://www.w3.org/2000/svg" xmlns:xlink="http://www.w3.org/1999/xlink" contentStyleType="text/css" height="222px" preserveAspectRatio="none" style="width:279px;height:222px;background:#FFFFFF;" version="1.1" viewBox="0 0 279 222" width="279px" zoomAndPan="magnify"><defs/><g><ellipse cx="39.5" cy="16" fill="#222222" rx="10" ry="10" style="stroke:none;stroke-width:1.0;"/><g id="Entité"><rect fill="#F1F1F1" height="50.2656" rx="12.5" ry="12.5" style="stroke:#181818;stroke-width:0.5;" width="65" x="7" y="86"/><line style="stroke:#181818;stroke-width:0.5;" x1="7" x2="72" y1="112.2969" y2="112.2969"/><text fill="#000000" font-family="sans-serif" font-size="14" lengthAdjust="spacing" textLength="45" x="17" y="103.9951">Entité</text><text fill="#000000" font-family="sans-serif" font-size="12" lengthAdjust="spacing" textLength="33" x="12" y="128.4355">id=-1</text></g><ellipse cx="114.5" cy="206" fill="none" rx="10" ry="10" style="stroke:#222222;stroke-width:1.0;"/><ellipse cx="115" cy="206.5" fill="#222222" rx="6" ry="6" style="stroke:none;stroke-width:1.0;"/><g id="EntitéPersister"><rect fill="#F1F1F1" height="50.2656" rx="12.5" ry="12.5" style="stroke:#181818;stroke-width:0.5;" width="165" x="107" y="86"/><line style="stroke:#181818;stroke-width:0.5;" x1="107" x2="272" y1="112.2969" y2="112.2969"/><text fill="#000000" font-family="sans-serif" font-size="14" lengthAdjust="spacing" textLength="109" x="135" y="103.9951">EntitéPersister</text><text fill="#000000" font-family="sans-serif" font-size="12" lengthAdjust="spacing" textLength="145" x="112" y="128.4355">id&gt;0, générer par la DB</text></g><!--link *start to Entité--><g id="link_*start_Entité"><path d="M39.5,26.257 C39.5,38.856 39.5,61.981 39.5,80.743 " fill="none" id="*start-to-Entité" style="stroke:#181818;stroke-width:1.0;"/><polygon fill="#181818" points="39.5,85.907,43.5,76.907,39.5,80.907,35.5,76.907,39.5,85.907" style="stroke:#181818;stroke-width:1.0;"/></g><!--link Entité to *end--><g id="link_Entité_*end"><path d="M59.2054,136.4347 C74.1515,154.9679 94.0072,179.5889 105.4064,193.724 " fill="none" id="Entité-to-*end" style="stroke:#181818;stroke-width:1.0;"/><polygon fill="#181818" points="108.658,197.7557,106.1217,188.239,105.5191,193.8637,99.8945,193.2612,108.658,197.7557" style="stroke:#181818;stroke-width:1.0;"/></g><!--link Entité to EntitéPersister--><g id="link_Entité_EntitéPersister"><path d="M72.0195,111 C81.9195,111 91.8195,111 101.7195,111 " fill="none" id="Entité-to-EntitéPersister" style="stroke:#181818;stroke-width:1.0;"/><polygon fill="#181818" points="106.8965,111,97.8965,107,101.8965,111,97.8965,115,106.8965,111" style="stroke:#181818;stroke-width:1.0;"/></g><!--link EntitéPersister to *end--><g id="link_EntitéPersister_*end"><path d="M169.795,136.4347 C154.848,154.9679 134.993,179.5889 123.594,193.724 " fill="none" id="EntitéPersister-to-*end" style="stroke:#181818;stroke-width:1.0;"/><polygon fill="#181818" points="120.342,197.7557,129.1058,193.2618,123.4811,193.8639,122.879,188.2392,120.342,197.7557" style="stroke:#181818;stroke-width:1.0;"/></g><!--SRC=[YzQALT3LjLDmpIl9B3cyaWjAWyMYjMBXV2k5p1HRNKCOFo2rg3Ypk2Ir22nXPw2Za7vuPTxXbKL0aOB48eMSH0KN9ow4QN0Bu1enJO9Q2G00]--></g></svg>